<svg xmlns="http://www.w3.org/2000/svg" viewBox="0 0 100 100">
  <path fill="#8bb02c" d="M50 28.7c-9.3 0-16.8 7.5-16.8 16.8 0 3 .8 6 2.2 8.4 4 7.3 5.2 11.5 6 15.5.5 3.4 1.2 4.2 3.8 4.2h9.5c2.6 0 3.4-.8 4-4.2.6-4 1.7-8.2 5.8-15.6 1.4-2.6 2.3-5.4 2.3-8.5 0-9.3-7.6-16.8-16.8-16.8zM56 75H44c-.5 0-1 .3-1 .8v.6c0 .5.5 1 1 1h12c.5 0 1-.5 1-1v-.6c0-.5-.5-1-1-1zM56 78.5H44c-.5 0-1 .4-1 1v.5c0 .5.5 1 1 1h12c.5 0 1-.5 1-1v-.6c0-.5-.5-1-1-1zM56 82H44c-.5 0-1 .5-1 1v.6c0 .5.5 1 1 1h12c.5 0 1-.5 1-1V83c0-.5-.5-1-1-1zM45.5 85.7h9c0 1.8-2.4 3-4.5 3-2 0-4.5-1.2-4.5-3zM69.3 17c1.5-2.8-2.6-5.2-4.2-2.6L58.6 26l4 2.4L69.4 17zM78.6 26.2c-2 1.3-11 6.5-11 6.5l2.3 4.2 11-6.6c2.7-1.5.3-5.7-2.4-4.2zM52.5 11v13h-5V11c0-3 5-3 5 0zM30.7 17c-1.5-2.8 2.6-5.2 4.2-2.6L41.4 26l-4 2.4L30.6 17zM21.4 26.2c2 1.3 11 6.5 11 6.5L30.2 37l-11-6.6c-2.7-1.5-.3-5.7 2.4-4.2z"/>
</svg>
