<svg width="296" height="496" viewBox="0 0 296 496" xmlns="http://www.w3.org/2000/svg"><title>em-head-onwhite</title><g fill="none" fill-rule="evenodd"><path d="M134.503 7.055c-.945 2.509-2.82 26.217-2.82 26.217s-3.836.568-5.062.806c-2.51.485-5.17.684-7.715 1.196-5.192 1.05-10.231 2.4-15.321 3.711-1.634.42-2.672 1.574-3.828.088-.776-.997-.884-2.65-1.24-3.827a77.649 77.649 0 0 0-1.887-5.525c-3.138-8.184-11.166-6.14-15.39-3.758-6.056 3.416-3.629 11.324-3.499 12.868.278 3.257 2.367 10.09 2.367 10.09S61.321 60.533 59.39 62.738c-2.811-1.677-4.245-2.896-6.768-3.795-2.283-.816-5.57-.758-7.875-.013-2.205.715-7.362 7.386-3.964 17.68.873 2.65-2.251 4.824-3.911 7.145-1.78 2.495-13.876 17.155-15.447 17.11-1.481-.038-2.786-.75-4.326-.732-1.394.015-2.545.3-3.732.772-2.09.83-3.574 2.48-4.437 4.642-3.046 7.61 4.205 13.797 5.03 15.628.142.315 1.13 1.927.985 2.275-.003.004-12.663 30.575-14.206 64.546-2.743 60.337 25.941 162.754 25.941 162.754s23.271 72.315 42.542 92.064c26.535 27.19 53.07 39.965 59.951 40.95 4.544.65 4.95 5.459 6.216 9.665.308 2.162 30.728 2.162 34.744.311 1.236-1.083 3.913-11.297 6.861-12.283 2.948-.984 50.079-18.422 69.534-59.4 30.682-64.63 39.567-130.288 39.567-130.288s14.09-69.455 7.856-131.373c-1.5-14.899-12.778-40.295-12.778-40.295s7.141-13.98 2.292-20.78c-1.795-2.523-5.775-3.69-8.98-3.365-1.54.157-6.953 3.442-7.5 3.163-.588-1.67-16.652-18.1-16.759-19.364-.066-.83 1.68-4.69 2.148-6.09.941-2.818 2.67-5.824.718-8.847-1.532-2.382-8.838-7.518-12.314-5.456-2.04.874-3.56 3.663-5.124 3.349-2.263-.453-17.314-9.847-23.21-12.454.217-.82 3.431-16.324 1.543-22.391-1.764-5.673-6.615-6.932-12.397-7.139-7.368 1.426-11.05 13.767-11.228 17.331-4.648-1.727-24.636-3.758-30.03-4.201-.216-4.222.132-8.51-.076-12.733-.31-6.206-.125-13.99-4.537-18.272-2.311-2.242-5.54-2.863-8.8-2.74-11.222.423-12.061 6.005-12.416 6.942z" fill="#FFF"/><path d="M72.855 186.378c.189-2.362-2.741-1.605-2.962-3.56.106-1.292-.488-1.886-1.781-1.778-.188 1.393-.936 2.227-.593 4.153 1.732 1.307 2.917 1.844 5.336 1.185zM91.238 34.58c.176-.874-1.527-1.985-2.372-1.778-.8 2.751 1.257 7.312 2.963 9.488.517-3.32-.687-5.583-1.184-7.118-.191-.587.567-.466.593-.592zm-18.383 86.573c-2.876-.42-2.622-8.165-4.743-6.524.564.866 1.988 3.88.593 4.743-.342-3.016-1.76-4.957-2.965-7.114.539 5.392 2.337 9.52 4.745 13.044 2.423-.622 4.113.222 4.745-2.965-1.829-4.285-4.673-9.899-6.525-13.64-.642-1.297-.646-4.047-2.372-3.555 2.677 4.835 3.916 11.106 6.522 16.011zm19.568-75.306c.797 3.353 1.34 6.962 2.965 9.486-.63-3.52.205-8.503-2.965-9.486zm33.206 141.714c3.216-.092 4.71 4.12 1.78 5.337-3.2-1.037-1.92-2.64-1.78-5.337zm5.928 5.93c1.255-2.243-.227-3.702 0-6.52-2.191-.578-3.402-2.131-6.52-1.779-1.866 2.331-2.364 4.022-1.78 7.706 1.444 1.988 6.304 2.49 8.3.593zm43.289 183.224c-.522 1.906 1.953.813 1.776 2.372-2.955 3.08-6.246-.914-8.299-2.372-.184-2.16.095-3.86.591-5.337h-1.778c-1.115 1.453-.155 4.985-1.779 5.932-1.466-.696 1.44-2.468-1.186-2.375-.288.701-.631 1.346-1.185 1.78-.76 2.341 1.728 1.434 1.78 2.965-1.862-.28-1.567 1.595-2.966 1.778-1.045 5.831.325 11.117.592 17.197.05 1.127-.621 1.306-.592 2.372.244 8.705.47 17.796 1.78 24.31 5.951-1.36 7.844-6.78 10.671-11.265 3.142-.022 2.748-3.58 4.744-4.743.229-10.425-.523-22.919-.593-32.02-1.77.13-2.017-2.19-3.556-.594zM63.962 98.028c.135 2.434 1.254 3.882 2.371 5.334-.305-2.263-.694-4.441-2.371-5.334zm112.66 265.052h-1.776c.668 1.702.12 4.623 1.184 5.927 1.053-1.121.433-3.915.592-5.927zM99.54 374.345c-4.798-7.894-10.13-14.928-13.639-23.72-1.945-.061-2.367-4.705-4.153-2.964 2.387 4.074 3.524 8.789 5.931 11.86 1.66 2.114 3.306 3.853 4.744 5.928 3.844 5.549 6.931 11.84 11.862 16.604-.124-1.592-1.526-2.343-2.376-3.558-.856-1.23-1.556-2.81-2.37-4.15zm13.044 20.752c-1.39-2.563-2.688-5.217-4.744-7.114 1.318 2.633 2.515 5.39 4.744 7.114zm33.8 45.066c-1.59 2.167.204 5.052.592 7.118 1.915.529.834-1.936 1.78-2.376.867-.516 1.877-.887 1.777-2.368-1.272-.903-1.773-2.578-4.15-2.374zm40.32-61.075c-.548 3.298-1.082.527-1.78-.593-.495 1.282-1.534 2.025-1.186 4.153-1.375-.192-2.274.093-2.962.593-1.137 5.378-.165 11.772 0 17.193.064 2.2-2.115 5.322.59 6.524 1.624-3.517 5.019-5.262 5.932-9.486-1.15-3.528-.17-8.897 0-13.048.082-1.994 1.921-4.395-.595-5.336zM56.253 77.867c-2.5-2.64-.575-9.704-5.929-9.487-.031 1.935 1.884 3.544 2.963 5.334.98 1.626 1.393 4.59 2.966 4.153zm166.028 40.32c.359-1.816 1.26-3.09 1.777-4.744-1.43.398-2.366 2.17-2.965 3.558-.668 1.551-1.138 3.8-1.184 5.931 1.615.054 1.19-.987 2.372 0-.294 1.561-3.272 1.994-1.78 3.559 3.234.772 4.473.347 5.337-2.375-.554-.632-2.185-.183-1.78-1.778.03-1.812 2.06-2.519 2.966-4.152.455-.82.073-2.02.594-2.963.559-1.028 1.906-1.723 2.369-2.964.257-.692-.273-1.69 0-2.373.175-.424.952-1.182 1.188-1.778.363-.924.232-1.484.595-2.371 2.224-5.46 5.866-12.127 5.336-17.199-3.677 9.965-7.567 19.715-12.455 28.463-.14-2.84-1.65.91-2.37 1.185zm-65.268-74.132c.195-.657.57-1.113 1.229-1.173 6.719-.224 13.37.568 19.952 1.87 3.01.593 6.002 1.279 9.002 1.91 1.09.227 2.918.174 3.198 1.497.233 1.095-1.152 2.452-1.457 3.455-.309 1.01-.227 2.229-.12 3.43-.092-.467-.232-.916-.498-1.357-2.401-3.994-9.365-4.882-13.59-6.023-3.361-.91-16.953-3.708-17.126 2.111a3.05 3.05 0 0 0-.42-.005c-.06-1.21-.659-4.087-.17-5.715zm38.585 2.979c0-.623.64-2.127.592-2.374-.02-.082.478-1.77.593-2.37 2.95-15.444 5.786-12.793 5.932-13.639 1.678.099 2.471 1.087 4.149 1.187.439 11.506-3.011 19.127-4.743 28.461-.44 1.735-1.433 2.915-2.375 4.152-1.172 7.025-14.75 56.718-15.415 58.703-.688 2.048-.162 5.559-2.966 6.522 1.29-9.186 10.41-61.036 13.044-73.53.207-.978 1.189-6.904 1.189-7.112zm33.797 23.124c-.015.577-.725.46-1.188.594.512 1.862 3.426 1.316 3.563 3.556-2.414 1.35-3.032-3.494-5.932-3.556-4.74-5.343-11.533-8.628-17.786-12.453-1.014.22-1.12-.46-1.188-1.185h1.775c6.98 4.29 15.49 7.043 20.756 13.044zm-5.337 13.046c-1.51 1.449-2.027 3.902-2.965 5.927-1.736-.502.354-1.907 0-2.962-1.73.837-1.88 3.257-2.965 4.743-1.3-.772.704-3.204.593-4.743-1.447 1.317-2.847 2.683-2.965 5.337-1.528-.815-.129-3.634 0-4.744-2.035 1.125-2.354 3.966-3.555 5.929-.97-1.393 1.144-4.761 1.184-7.116-2.082.092-.72 3.629-2.966 3.556-.427-1.616 1.179-1.19 1.19-2.369.158-2.014-.46-4.808.592-5.93-1.598-.41-1.148 1.225-1.782 1.778-1.307 1.392.59-1.97 0-3.56-1.228.156-.162 2.607-1.186 2.969v3.556c-.801-.183-.492-1.485-.594-2.371v-5.929c-2.142.36-1.476 4.817-2.963 6.52-.419-4.754 1.454-14.22 1.78-18.38.861 1.107 1.584-.092 2.372 0 5.659.67 8.61 5.708 13.048 8.893.613.441 1.056.871 1.775 1.187.536 2.433 1.815 4.117 2.967 5.93-.675 2.49-2.484 3.842-3.56 5.928-1.086-.789 1.302-2.648 0-4.15zm11.918-6.97c.825-1.743 1.67-3.49 2.653-5.15.302-.506 1.323-2.638 2.034-2.704 2.171-.195 3.295.658 4.743 1.184 1.192 1.954-1.905 4.839-2.375 5.931-.724 1.704-1.95 3.406-2.368 5.337.207.83 1.041.05 1.186-.594 1.038.698-8.31 20.745-8.305 26.686-1.206.617-1.823 3.749-2.214 4.887-.749 2.182-1.709 4.594-1.85 6.906-.038.617.152 1.197-.284 1.675-.617.685-2.021.504-2.763 1.1 2.412 1.819 6.26 3.003 8.106 5.544.125.044.182.029.3.118 1.573 1.291 3.317 2.365 4.96 3.58 1.635 1.214 3.314 1.938 4.82 3.137 1.466 1.17 3.205 2.476 4.646 3.665.801.661.87.949.58 2.1-.458 1.829-1.5 3.136-2.186 4.816-.226.556-2.572 5.51-2.253 5.756-2.23-1.726-3.21-4.695-5.337-6.524-.044-7.466-3.735-11.284-7.707-14.824 3.249 3.972 3.624 8.168 1.182 14.23-.444 1.115-1.14 1.732-1.774 2.968-2.282 4.424-6.578 10.081-8.306 14.23-1.873.097-1.979-1.577-4.15-1.187.608 2.36 3.002 2.93 4.744 4.15-.497 2.119-3.055-1.524-3.557.594-2.857-2.283-6.596-3.68-10.082-5.338 1.116-3.373 4.716.07 7.119.594-.27-1.903-2.31-2.04-3.562-2.962.667-.396 5.922-5.525 4.152-5.931 2.995-4.12 9.703-14.404 4.395-18.621-.942-.749-2.288-1.337-3.335-1.96-1.24-.738-2.479-1.49-3.805-2.065-5.296-2.302-12.089-4.54-17.413-1.071-1.915 1.64-9.331 12.377-11.268 16.008-1.967 3.684-3.515 7.352-5.337 11.265-.868 1.868-7.318 20.074-8.893 24.312 1.636 6.176-2.407 10.755-2.965 16.604-.869 4.642-3.334 3.951-6.522 4.15-3.434.212-8.553-1.052-8.303-4.15.302-29.15 11.96-46.942 19.568-68.782 2.316.554-8.248 26.617-9.486 30.241-.108.308-.981 2.827-1.185 3.556-1.404 4.98-2.896 9.767-2.966 14.824-.014 1.397 1.021 1.747.591 3.557.626 1.748 2.684 2.062 4.152 2.964 4.325-.419 7.712-16.597 8.894-20.157.881-2.65 8.543-21.904 9.487-24.311.484-1.496 1.708-5.251 2.37-7.119 1.721-2.434 3.241-5.064 4.154-8.299 4.52-2.398 5.33-8.506 8.893-11.861.771-1.472-1.739-2.461 0-2.963 2.823-.696 5.263 1.192 7.242 2.948 1.024.907 2.017 1.858 3.036 2.768 1.138 1.02 2.56 1.184 3.883 1.952 1.357.79 1.545 1.754 1.545 3.295 0 1.274-.632 3.065.922 3.484 1.736.469 4.077-5.995 4.734-7.508 1.616-3.721 3.117-7.49 4.632-11.253 3.479-8.638 6.843-17.358 10.828-25.782zm22.474 22.978c1.055.338.085 1.65 0 .593-1.449-1.908-2.973-3.747-5.337-4.742-.56-1.812-2.888-1.858-2.964-4.15-1.622-.553-2.528-1.82-4.149-2.375.014-1.394-1.024-1.744-.594-3.557 4.835 4.257 9.444 8.744 13.044 14.23zm.592 12.455c.709 4.353-4.406 8.566-7.114 13.044-2.56-.266 1.348-3.055.596-5.338-1.729.847-1.342 3.803-3.561 4.15-.098-2.075.158-3.793 1.186-4.744-.81-1.153-2.494 1.815-2.962 2.968-2.25-.579.266-3.72 0-5.93-.99 1.188-2.153 2.196-2.376 4.15-1.665-2.478.305-6.399.595-8.894-1.51 1.06-1.747 3.393-2.963 4.743-1.015-1.63 1.297-5.003 1.777-7.117-.532-1.602-1.429 1.253-1.777 1.781-.723-4.387 1.264-7.711 1.183-13.637-.552.434-.898 1.076-1.183 1.776-.94 1.766-.44-1.945.588-1.776-.42-2.201 1.013-2.548.595-4.744h3.56c2.987 4.522 7.036 7.98 10.67 11.857-.46 2.604 1.418 4.131 1.78 5.93.077.384-.72 1.002-.594 1.781zm17.793-8.305c1.11 2.584-3.23 11.794-4.745 14.824 1.134 1.096 1.333-3.774 3.556-3.556-.897 2.36-3.926 4.077-2.375 7.117-2.57.194-1.914 3.617-3.555 4.744-1.332 2.08-1.332 3.846 0 5.928 1.912-2.044 3.002-4.905 5.338-6.521 1.9.602 2.326 3.186 2.964 4.742 4.737 11.56 8.42 27.057 9.485 42.692.41 5.99.324 12.56.593 18.973.387 9.083-.221 19.37-.593 27.28-.163 3.575.23 7.269 0 10.674-.168 2.518-.998 5.237-1.182 7.705-.903 11.884-2.696 24.116-2.968 34.985-1.856-2.958-.207-8.48 0-13.043.241-5.308-.381-11.31 0-14.232-.347-1.233-1.245-1.917-1.775-2.966 1.13-13.299 1.476-26.28 1.182-36.763-.226-8.225-.092-14.783-.59-23.127-.227-3.748-1.461-7.513-1.78-11.264-.28-3.299.295-6.89 0-10.08-.27-2.909-1.091-6.525-1.782-9.489a171.42 171.42 0 0 0-1.185-4.742c-1.077-4.16-2.693-9.036-5.925-11.858-2.655-.479-3.296 1.054-3.562 2.961-1.988-.54-.289-1.1-.588-2.961-2.413 4.504-5.231 8.608-7.712 13.043-2.606 2.137-6.153 3.334-8.3 5.93 1.076 1.037 3.62-1.486 5.93-1.187 2.031.4 3.17 2.651 4.15 4.152 1 1.538 2.615 3.288 2.37 5.928 3.132 5.567 4.053 13.342 4.743 21.348-2.433-2.363-1.799-6.265-2.961-9.487-.91-2.506-2.703-4.337-3.557-6.523-3.91-4-7.582-8.233-11.267-12.45.163-2.01.94-3.407.592-5.931-.28-2.439 1.49.463 2.37-1.187.845-3.306 2.175-6.124 3.56-8.894-1.303-.51-2.032 2.02-2.968 3.557-.853 1.409-2.34 3.219-2.37 4.744-2.19-.476-.491-2.44 0-3.557.585-1.392 6.612-14.573 7.708-17.195 1.385-3.309 10.978-24.207 17.2-24.314zm.125 133.7c-.28 10.211-.72 20.474-2.5 30.55.637-3.604-.748-8.21-.811-11.894-.072-3.816-.405-7.768-.729-11.616-.231-2.793-.72-5.477-.569-8.437.223-4.48.614-8.955.559-13.443-.135-10.692-.746-21.24-1.795-31.857-.577-5.843-.07-11.334-.304-17.115a132.38 132.38 0 0 0-.824-10.24c-.292-2.455-.141-6.916-1.212-9.35 1.475 2.863 1.452 6.198 2.129 9.59.606 3.065 1.89 6.291 2.367 9.488.512 3.413.277 7.576.595 11.268.372 4.287.453 8.941 1.366 13.14.795 3.638 1.573 6.635 1.78 10.38.54 9.899.227 19.608-.052 29.536zm-12.581-29.34c.095-.694 1.081-.498 1.78-.592.638 5.645 3.403 11.806 1.777 17.792-.315-3.81-.463-12.837-3.557-17.2zm7.711 100.212c-.607 3.393-2.032 6.669-2.374 10.081-.26 2.626.256 5.081 0 7.706-.333 3.462-1.187 7.11-1.78 10.674-.272 1.629-.87 3.668-1.183 5.337-.76 4.057-1.282 8.164-1.88 12.249-.278 1.909.062 3.655-.436 5.561-.56 2.167-1.56 4.188-2.124 6.356-2.155 8.295-5.553 16.442-8.608 24.455-.502 1.324-1.25 2.758-1.777 4.152-.945 2.497-1.875 5.02-3.221 7.333-1.125 1.935-1.545 3.822-2.448 5.842-2.354 5.267-4.883 10.507-7.84 15.463-1.144 1.92-2.979 3.749-3.774 5.833-1.164.642-1.53 2.6-2.52 3.369-.529 2.104-3.261 4.31-4.757 5.867-1.646 1.718-2.837 3.38-4.315 5.117-2.957 3.474-6.107 7.175-9.414 10.112-.907.807-2.186 1.772-2.81 2.67-1.137.767-2.242 1.708-3.332 2.45-3.72 2.55-8.132 4.553-12.253 6.37-4.646 2.045-9.205 4.19-14.078 5.956-2.255.82-4.524 1.992-6.984 1.866-.248-.839.02-2.045.068-2.943-1.833-.054-1.766 1.79-1.778 3.56-1.328-.256-.241-2.922-.594-4.153-1.5.672-1.721 2.63-1.777 4.743-1.337-.44-.233-3.324-.594-4.743-2.034 2.513-2.558 6.535-2.372 11.267-1.58-.184-5.819 2.336-5.336-1.187-.868.517-1.88.887-1.779 2.375-1.847-.137-1.003-2.955-1.187-4.744-2.507.06-.562 4.573-2.963 4.744v-8.302c-2.446 1.507-2.13 5.776-2.966 8.892-1.769-1-1.712-3.823-1.779-6.522-1.212 1.161-1.768 2.975-1.78 5.337-2.142.56-.824-2.334-1.185-3.557-2.689-.318-.397 4.343-2.965 4.152v-3.561c-1.275.501-.957 2.603-1.777 3.56-2.559-.724-2.186.126-4.743-.594.394-5.535-1.48-8.801-1.189-14.23-1.64 2.51-2.16 6.138-2.371 10.08-2.154-.423-1.578-4.82-1.777-8.301-1.743.857-1.036 3.839-1.801 5.302-1.094-.812-.408-1.85-2.147-.943-.959.501-1.703 1.233-1.173 2.36.596 1.267 3.493 1.719 3.257 3.08-.53.09-.873-.113-1.355-.171-5.718-.7-10.858-3.315-15.49-6.372-4.526-2.993-9.278-5.686-14.024-8.615-5.45-3.367-9.954-7.751-14.784-11.953-2.095-1.824-4.238-3.813-6.221-5.704-1.12-1.068-2.113-2.031-3.29-3.146-.858-.81-2.56-1.757-3.05-2.804-.406-.226-.362-.21-.598-.595-3.156-2.006-4.932-6.965-6.868-10.166-2.255-3.727-4.55-7.432-6.764-11.185-2.24-3.799-4.403-7.639-6.375-11.582-1.998-3.985-3.401-8.213-5.299-12.22-.632-1.342-1.343-2.608-2.37-3.559-1.229-4.67-3.227-8.874-4.742-13.637-.97-3.04-1.944-6.21-2.967-9.486-1.067-3.435-1.61-7.297-3.33-10.488a42.696 42.696 0 0 1-3.615-9.059c-.355-1.3-.499-2.718-.783-4.06-.269-1.254-.822-2.426-1.195-3.553-.845-2.546-1.086-5.519-1.64-8.205-.604-2.908-1.073-5.917-1.65-8.809-2.081-10.383-4.74-20.688-6.762-31.133-1.141-5.902-1.331-12.547-3.556-17.193.63-5.44-.763-10.342-1.187-15.417-.083-.996-.59-2.38-.593-3.56-.01-2.153.352-3.796 0-6.522-.252-1.983-.088-4.67 0-5.336.202-1.51-.025-3.45-1.186-4.743 1.272-2.684.28-7.627.594-11.268.155-1.735-1.342-1.822-1.184-3.557-.241-1.425.574-2.718.59-4.15.024-1.852-.964-3.03-1.184-4.743-.125-.974.651-2.336.594-3.558-.136-2.685-1.243-5.408-1.188-8.302.043-2.288.67-4.858 0-7.117-.632-2.13.087-1.56 0-4.152a165.208 165.208 0 0 1 0-9.487c.4-1.573.932-3.018 1.778-4.15-.605-.776-.581-2.186-1.184-2.962 1.003-3.279 1.067-3.891 1.184-7.712-.166-1.056.563-1.215.594-.591-.048 3.608.842 6.273 1.779 8.894 1.065-.721-.666-3.64 0-5.928.882.502.859 1.909 1.186 2.963 1.388-4.56.425-11.88-.593-16.009 1.933-1.71 1.39 3.844 1.778 5.335.593 2.277 1.983 4.28 1.778 5.93.468-2.036.26-5.168 0-8.3-.34-4.135-1.445-8.825-1.185-11.267 1.511 3.278 2.63 9.287 3.56 11.267.865-4.354-.589-13.612-1.188-21.348 2.348.664 1.313 3.45 1.779 5.338 1.002 4.048 3.199 10.216 4.746 14.823-1.154 5.583-.59 12.762.59 17.79-2.014-1.146-.653-5.67-2.372-7.115-1.044 4.217 2.21 12.4 1.782 16.01-2.384.01-1.65-3.098-1.782-5.337-1.679.739-.617 3.675-.593 5.929.049 4.644.352 9.836 1.187 13.639-.604-.386-.612-1.365-1.78-1.188-.71.682-.229 1.504 0 .595 1.008.385.372 1.363-.594 1.187.936 7.957 1.663 16.127 1.78 24.901 1.595 3.743 1.968 8.707 2.373 13.64-2.464-3.663-2.25-10.008-3.559-14.825-.606 10.095 1.131 22.98 2.373 33.204-2.74-6.969-2.921-12.864-4.743-20.753-.806-.787-.704.266-1.187-1.185-1.227-1.228.408-4.533-1.187-6.522-1.435 4.136 1.183 7.149.594 11.858.014-.12-.987.278-.594.594.748.596.405 2.028.594 4.151.208 2.308 1.042 4.85 1.187 7.114.265 4.126-.59 9.053.593 12.453-.115.673-.596.33-.593 0-1.633-4.298-3.004-8.859-3.559-14.23-1.063 2.349-.63 5.186-.591 7.708.012.926.019 1.848 0 2.962-.002.082.678.638.591 1.187-.186 1.169-.33 5.425 0 8.3.312 2.71 1.407 5.437 1.778 8.304.794 6.105.077 12.606 2.966 17.787 1.025-.761-.413-3.778-.592-6.52.643.147.4 1.179 1.185 1.184.345-1.438.292-3.585 0-5.337 1.155.822 1.822 2.133 3.558 2.375 1.231 6.08 3.852 10.769 4.744 17.192.695-.093.5-1.08.593-1.775 1.516.655 1.164 3.181 1.186 5.335 2.047 6.25 5.354 11.25 6.522 18.381 1.476 1.864 2.108 4.431 2.964 6.522.485 1.19.77 2.493 1.185 3.56.118.298 1.12.964 1.187 1.183.796 2.632 1.66 5.289 2.965 8.302 1.356 3.133 2.628 5.746 4.15 9.487 1.921 4.721 3.916 9.414 6.16 13.992 1.047 2.14 3.183 4.745 3.73 7.024.18.763-.033 1.481.147 2.309.244 1.125.93 2.179 1.392 3.22.702 1.572 1.275 3.186 2.008 4.668 1.346 2.715 3.096 5.299 4.565 7.981 2.51 4.591 5.29 9.214 7.807 13.584 2.449 4.255 4.252 8.743 7.152 12.627 1.196 1.608 3.083 3.39 4.632 4.964 1.606 1.634 4.587 2.936 5.697 4.93.446.196.44.218.745.593.136.068.263-.023.398.047.573 1.192 2.181 1.908 3.164 2.658 1.085.829 2.553 2.379 3.81 2.864 1.512.589 2.771-.724 4.33-.818.626 1.304-.02 1.97 1.187 3.558 1.4 1.17 3.086 2.054 4.744 2.962-.015.58-.725.464-1.188.594.508 1.743 1.494-.772 2.968 0 3.604 3.312 9.337 4.497 13.638 7.118 2.83-.459 3.816.927 6.523.59 1.115 1.456.888 4.25 1.776 5.932 1.149-1.818.308-5.626 2.968-5.931 2.793 4.419.15 12.053 2.37 16.012 4.831.64 8.598-2.373 11.86 0 2.443.075 3.714-1.031 6.522-.594 2.596-.107 3.05 1.928 5.336.594 1.64.252.555-2.215 1.779-2.373-.27-7.817-.535-9.005 0-16.604 1.397-.012 1.747 1.021 3.558.594.295 2.953-.122 3.532.592 5.336 1.03-.948 1.286-2.667 1.187-4.744 4.326-1.207 8.72-2.348 13.045-3.554 1.89-.53 3.71-2.316 5.476-3.216 1.872-.952 3.948-1.446 5.786-2.477 1.916-1.072 3.783-2.864 5.743-3.467.68-1.062 2.301-1.928 3.306-2.689 5.046-3.846 8.362-8.162 11.84-13.418 1.544-2.338 3.003-4.957 4.73-7.007 2.093-2.486 4.208-4.165 5.482-7.223 1.52-3.645 4.042-6.728 5.664-10.312 2.08-4.598 2.722-10.405 5.93-14.231.728-7.182 4.899-10.916 6.526-17.199.694 3.294-1.322 6.467-2.374 10.082-.97 3.34-1.892 6.987-2.372 10.674 1.55-1.614 1.85-4.476 2.966-6.525.418 2.263-1.087 5.545-2.371 8.897-.266.682-.916 1.626-1.186 2.37-.415 1.15-1.17 2.786-1.782 4.15-.26.584-.207 1.578-.593 2.374-.132.276-1.077.362-1.182.592-.227.478.245 1.309 0 1.778-.136.258-1.092.381-1.188.594-.893 1.976-1.825 4.454-2.967 7.115-.652 1.527-2.031 3.74-2.37 6.522-2.475 2.075-3.6 5.49-6.523 7.116-1.174 3.964-4.411 5.866-5.93 9.488-4.773 4.517-10.11 8.469-14.825 13.042-.603.783-.58 2.187-1.182 2.97-5.82 1.693-11.01 4.01-14.824 7.706-2.868-.1-4.532 1.001-5.932 2.373-3.577.173-6.148 1.361-8.893 2.37.094 5.662 4.69 4.067 8.295 2.296 1.673-.82 3.236-1.688 4.913-2.532 1.01-.507 2.91-1.1 3.558-1.932 1.094-.092 2.353-1.046 3.313-1.558 1.091-.587 2.164-1.096 3.2-1.699 1.483-.858 3.277-1.834 4.068-3.44.3-.603.044-1.834.332-2.238.146-.21 1.083-.502 1.376-.76.834-.72 1.993-.495 2.969-.84 1.17-.411 2.08-1.31 2.924-2.184 1.558-1.607 3.146-3.055 4.838-4.359 2.564-1.961 4.09-4.94 6.767-6.773.237-.296.472-.637.685-.983.1-.072.226.018.337-.041.207-.446.304-.409.644-.64.973-1.784 2.382-3.496 3.471-5.266.532-.859 1.073-1.725 1.733-2.493.397-.453 2.183-1.499 2.312-1.913 2.456-7.788 7.002-13.977 10.674-21.347 5.503-11.042 11.071-23.935 14.232-38.542 1.704-1.88 2.735-5.504 3.56-8.303 1.178-4.003 1.81-6.903 2.369-11.859.613-5.382 3.035-11.106 4.15-17.195.373-2.01.193-4.133.593-5.927.072-.312 1.139-1.564 1.188-1.781.454-2.024.657-4.435 1.186-6.523a154.744 154.744 0 0 1 2.37-8.302c.99-2.498.965-5.886 1.781-8.892.656-2.427 1.119-5.76 3.556-6.524 1.024.361-.043 2.813 1.188 2.965-1.546 5.537-1.897 11.803-2.964 17.789zM233.545 437.2c-.98 1.582-1.968 2.909-3.557 4.743-.868 1.004-3.627 3.927-5.336 4.15.372-.702.83-1.035 1.187-1.782.188-.39.26-1.567 0-1.183 1.395-2.053 2.716-2.552 5.337-3.56 1.178-2.179 2.379-4.34 3.556-6.522 2.196.265-.589 3.194-1.187 4.154zM14.154 283.624a541.297 541.297 0 0 0-2.963-16.011c-.111-.543.593-.58.59-.595-.212-1.492-1.003-2.667-1.184-4.15-.198-1.61.213-3.247 0-4.742-.377-2.65-1.4-5.138-1.78-7.71-.537-3.63-.407-7.992-1.187-11.858-.132-.657.295-1.78 0-2.372-.049-.099-1.183-.586-1.186-.593-.05-.611 1.012-1.123 1.186-1.778-.025.096-.753-.763-.592-1.188.968-2.538-.21-12.027-.594-16.602.21-.68 1.045-1.503 1.186-.59 2.035 23.065 3.97 46.232 7.117 68.189.075 1.465-.726 1.008-.593 0zM7.038 182.228c1.166-1.127.352 4.756.592 6.522-2.194-1.067-.359-3.176-.592-6.522zm.592-4.746c.086-4.648.583-8.235 1.186-12.45.212-1.49-.234-2.804 0-4.15.609-3.479 3.567-10.355 3.56-15.417 1.42-1.899 1.324-4.45 2.37-7.119.59-1.5 2.066-4.535 2.964-6.52.354-.78.164-3.728 1.78-2.966.85.868.87 2.297-1.187 1.78.492 1.675-.834 1.535-.593 2.964-2.136 4.78-4.155 11.498-4.743 16.01-2.816 10.524-4.77 18.704-4.744 31.426-2.139-.321-.615-2.299-.593-3.558zm10.08-69.967c1.197.778 2.007 1.947 2.374 3.558 2.668 2.471 3.2 7.08 5.93 9.487-1.708-5.212-4.816-9.02-6.524-14.23 5.747 6.702 8.6 16.306 14.824 22.53.85 3.699 3.132 5.962 4.744 8.895-.68 1.137-1.689-1.063-2.372-1.778-.649-.68-1.503-3.329-2.372-4.743-1.677-2.723-3.61-5.28-5.337-7.118.418 3.078 2.491 5.101 4.15 7.71.942 1.475 1.477 3.239 2.374 4.746 1.796 3.01 4.054 5.698 5.337 8.893.413 1.032.174 2.395.59 3.556.276.768.785 1.501 1.186 2.373.847 1.845 2.449 2.989 2.373 5.336-.858-.02-.899-3.728-1.78-1.779-1.52-2.038-2.702-4.412-3.557-7.117-1.784 1.633.595 4.116.595 5.93-1.342-1.228-1.854-3.286-2.375-5.336-1.992.67 1.344 4.275-1.184 2.373.595 1.974 1.065 4.073 1.779 5.929-.86 1.754-.793-2.305-1.779-2.372-.312 1.322.828 6.274 2.372 7.709 2.362-.684 4.135.243 5.337-2.372 2.075 2.87-3.464 5.453-5.337 2.963-.343 3.487-.625 8 0 12.454-2.613-.154-1.475-4.062-2.965-5.336-1.32.605.774 2.726 0 4.743-.695-.097-.5-1.081-.592-1.781-1.694 1.351.833 3.477 0 5.93-.694-.097-.502-1.08-.593-1.777-1.714 3.89 1.481 7.759 0 12.451-1.492-.484-.828-3.126-1.781-4.149-.738.208.49 3.417 0 5.337-1.4-.772-1.144-3.207-1.777-4.744-1.47.936-.242 4.146 0 5.335-1.991-1.766-1.365-6.147-1.779-9.487.574-2.406 3.079-5.99 1.186-8.896 1.014-1.911 1.608 1.486 1.777 2.374 1.337-3.131-1.275-7.412-1.184-11.267 1.924.448.916 3.826 2.964 4.15-1.708-3.354-.451-6.308-1.187-10.08 2.297-.515 2.108 1.45 3.56 1.78.102-3.266-2.652-7.682-4.744-11.267-.37-.632-.133-1.285-.593-1.779-1.372-1.472-.506-.981-1.779-3.558-1.313-2.655-4.232-5.44-4.744-9.487-.113-.478-.596-.59-.594-1.185a14.44 14.44 0 0 1-2.371-2.371c1.363-4.445-3.708-10.333-5.337-14.232.181-2.98-.683-7.011 1.185-8.301zm16.604 6.521c2.47 3.262 4.75 6.717 6.524 10.675-3.21-2.92-5.354-6.904-8.304-10.08.096-.695 1.08-.5 1.78-.595zm3.556.594c-.858-1.118-.87-3.08-2.369-3.557.987-4.545 6.495-4.572 8.3-8.303 3.696-.057 5.253-2.258 6.524-4.742 1.501 2.452 1.58 6.323 2.963 8.896-1.487-.888-2.08-2.665-2.963-4.154-1.33 1.562 1.53 3.98 1.185 6.523-.645-.145-.403-1.178-1.185-1.185-1.247 1.296 2.495 5.086 1.185 6.522-1.627-.548-2.478-1.87-2.966-3.557-1.023 2.032 1.197 5.904 2.966 7.113-1.913 2.85-2.688-1.366-4.153-2.37-.665.514.871 3.842 1.782 4.744-1.275 1.8-1.82-2.09-2.966-2.374-1.272.743 1.477 2.433 1.184 4.152-1.915-.847-3.025-2.506-3.556-4.743-1.846 1.13.926 2.574.594 4.152-1.346-.434-1.773-1.785-2.372-2.968-.784-.284-.036 2.72.59 2.968-1.27.652-3.406-2.898-4.148-4.746-2.192-.972-3.269-3.057-4.15-5.334 1.56.613 1.997 2.35 3.555 2.963zm30.835 39.134c-.18-1.853 1.714 1.508 1.78-.593 1.12.068.411 1.962 1.777 1.78.101 1.287-2.101.268-2.963.594.05-.842.097-1.68-.594-1.781zM49.14 65.414c3.66-.204 4.805 3.45 5.929 5.93 1.26 2.786 1.55 6.362 3.557 8.301-.391 1.776-1.267-.565-2.371 0 1.23 1.735 1.333 4.596 2.965 5.93 1.53-.145-.815-1.02 0-2.371 3.6 6.543 6.876 13.557 9.486 20.752.21.579.256 1.534.594 2.374.572 1.42 1.809 2.714 2.372 4.15.32.815.257 2.099.591 2.963 1.216 3.14 4.174 7.412 4.152 12.455-8.538.159-11.863 5.53-14.233 11.857.232.982.323 1.36.594 2.372.101.375.114 2.085 0 1.779.237.639.98.19 1.187.593.147.287-.987 1.631 1.187 1.779.164.957-.561 1.023-.593 1.78.525.533 1.804.046 1.777 2.37 1.672.106.742 2.817 2.966 2.373-.441 1.733-3.202 1.146-2.966 3.557-.001 2.176 2.078 2.273 2.966 3.557 2.166.39 2.272-1.282 4.15-1.185 1.086 1.88 3.107 2.825 3.557 5.337-4.758 1.959-7.597 5.844-11.857 8.302-.731-.26-1.218-.76-1.187-1.78-1.736.501.354 1.91 0 2.965-2.073-.283-1.97-2.918-2.371-4.151-1.084-3.31-1.784-5.98-2.966-9.488-1.392-4.136-2.715-9.955-2.963-16.01-2.142.428-2.132 3.01-2.374 5.338-.82.957-1.68 1.877-2.371 2.965-.345 1.925.402 2.758.593 4.15-1.899.275-2.092 2.258-4.153 2.372 1.675-2.913-.702-4.635-.591-7.709-.108-1.293.486-1.887 1.778-1.778.135-1.05-.598-2.97 1.188-2.372.738-8.353 8.59-9.593 10.673-16.605h2.963c.684-.7.67-2.094.594-3.555 2.309-.063 1.018-3.726 2.963-4.151-1.58-1.95-.845-4.28-1.776-6.524-1.342-3.218-3.064-6.451-4.744-9.487-1.573-2.837-2.962-6.275-5.337-8.3-.168-2.403-1.018-4.12-1.187-6.523-1.593-2.128-2.653-6.61-4.15-10.08-.69-1.598-1.887-2.911-2.374-4.744-.926-3.509-.486-6.867 1.782-9.488zm10.784 5.545c.782-1.09 1.912-2.075 3.165-2.972 1.772-1.27 3.794-2.36 5.434-3.325 2.96-1.74 5.68-3.839 8.592-5.651 1.44-.895 2.922-1.732 4.48-2.401 1.468-.624 3.113-.787 4.329-1.796.72.423.596 4.077.835 5.172.352 1.629-.01 3.474.434 5.078-2.258-1.628-2.109-6.371-5.721-3.39-2.284 1.887-4.636 3.533-7.081 5.256-2.236 1.578-4.608 2.933-6.823 4.473-1.076.748-2.331 1.673-3.509 2.364-1.011.597-2.501 1.207-3.218 2.277-.049.075-.075.144-.116.213-.576-1.978-1.872-3.804-.8-5.298zm25.385-36.97c.818-1.16.832-3.124 2.371-3.558 2.944-.061 3.943 3.296 4.744 5.335.982 2.498 1.158 5.714 1.78 8.3 1.275 5.306 2.73 11.017 3.557 16.012.026 1.515-.44.724-1.187.593.482 2.68 1.012 5.312 1.78 7.709.806-.184.492-1.485.594-2.372 3.62 10.355 5.978 22.167 8.3 33.204.97 4.606 1.959 9.019 2.965 13.64.847 3.89 1.469 8.28 2.372 12.451-1.709-2.444-2.5-5.8-3.557-8.893-1.504 2.708.536 6.958 1.185 9.488-.253 1.634 2.213.554 2.372 1.778v5.333c-5.87-10-14.999-45.885-16.602-51.584-1.668-5.92-11.55-40.153-10.674-47.436zm15.274 16.438c2.768-.714 5.42-2.3 8.132-3.284.106-.036.208-.075.313-.109 3.49-1.204 7.375-2.553 11.265-2.967 1.274-.133 11.31-1.957 15.224-1.824.39 1.797.254 3.537.336 5.39.048 1.075.668 3.354-.15 4.188-.39-.357-.632-.864-.804-1.383-1.357-1.309-1.727-2.036-3.833-2.033-2.771.005-5.038-.106-7.748.458-3.248.676-18.517 3.952-19.555 5.14-1.153 1.321-.246 3.507-1.58 4.85.181-1.372-.828-3.292-1.406-4.426-.401-.787-2.032-2.194-1.911-3.117.135-1.062.785-.642 1.717-.883zm48.764 96.222c-1.008-.216-1.116.463-1.185 1.185-2.37-.195-3.29 1.06-5.929.594.57-1.207 2.277-1.279 4.152-1.185 1.888-.814 2.92-3.14 1.777-5.337-.691.89-1.713 1.45-1.777 2.965-.804-.757-1.185-1.805-1.78 0-.73-.26-1.218-.757-1.185-1.78-1.177.009-.756 1.619-2.375 1.187v-1.779c-1.692.48-1.462 2.886-2.368 4.15.085 1.098 2.006.365 2.368 1.185-.894 1.609-2.557-.942-3.557-1.185-.805-4.53-2.127-8.545-4.148-11.858-.059-5.477-4.59-6.481-5.337-11.268-1.599-1.959-2.602-4.514-4.15-6.522.82-1.353.783.09 1.185.594 2.135 2.695 5.309 7.984 7.114 11.858 1.802-.73-.642-2.038 0-3.555 1.042.85 1.35.543 1.188-1.187 1.287 1.28 1.677 3.461 2.372 5.337 1.053-.715-.052-4.261-.595-5.337 1.614-1.382 1.304 4.205 2.966 4.742 1.2-.67-1.28-2.627-.595-4.742 1.802-.218 1.23 1.929 1.782 2.965 1.336-.442.231-3.328.59-4.744 1.46 2.294 1.137 6.372 2.373 8.893 1.35-1.218.02-5.12 1.187-6.522 1.358 1.805-.03 6.353 1.777 7.706.973-1.543.114-2.566.595-5.333.682-1.918.67 1.592.593 2.372-.015 1.396 1.02 1.746.592 3.556 1.93-1.626 1.274-5.84 2.37-8.3 2.273 2.121.19 5.709 1.187 8.3 1.443-1.323 1.664-3.87 2.372-5.928.803.182.493 1.483.594 2.372 1.8-.57 1.29-3.454 2.372-4.745 1.8.732-.644 2.04 0 3.557 2.26-2.678 3.717-6.167 5.93-8.894.558 1.54-.947 2.702-1.78 4.15-2.316 4.025-4.506 10.006-7.71 13.64-.282 3.67-2.126 5.778-2.965 8.893zm3.56 64.633c-.464-1.271-1.441-3.312-.595-4.152.704-.68 2.098-.67 3.56-.592-.741 1.831-.49 4.65-2.966 4.744zm-1.78-45.657c.023 1.8.347 3.901-1.78 3.557-.084-2.654-1.059-3.294 1.78-3.557zm-30.834 93.688c-.458-.401-.784-.161-1.184-.594-2.483-2.674-6.853-5.52-8.896-9.488.69-.095 1.054.13 1.184.595 3.342 1.192 5.362 4.256 7.712 6.518 2.316 2.235 5.756 4.067 6.521 7.712-1.26-.28-2.154-.456-2.966-1.188-.654-.59-.713-1.9-1.186-2.372-.199-.197-.986.198-1.185 0-.19-.189.2-1.01 0-1.183zm136.382-7.119c-.092 3.252-.068 6.39.593 8.897-1.664-.317-1.1-2.856-1.78-4.153-1.487 1.22-2.298 3.767-1.188 5.93-2.046-.323-1.038-3.702-2.962-4.15-1.786-.598-1.052 1.323-1.187 2.373-.507.108-.559-.233-.593-.595.014-1.992-.816-3.136-1.782-4.152.821-1.792-.278-2.118 0-4.742-.056-1.175-2.083-5.197-.587-4.151.312 2.056 1.583 3.158 1.776 5.337 1.443-1.097.052-4.362-.595-5.337.115-.671.599-.329.595 0 1.118-.661 2.726-.831 2.965-2.368 1.223 1.343 1.213 3.925 2.37 5.334 1.471-2.204.526-3.545.595-6.522 1.323 1.052 2.006 2.736 4.149 2.962-.27 2.186-.164 3.963-2.369 5.337zm-10.673 11.267c1.765 1 1.504 4.03 1.774 6.522-2.345-.416-.655-4.875-1.774-6.522zm-7.017-47.824a.4.4 0 0 1 .033-.14c.178-.464.98-.395 1.37-.337 1.271.182 2.5.8 3.635 1.371 2.113 1.064 3.704 2.677 4.946 4.675.361.588.637 1.239.936 1.833.279.558.617 1.093.892 1.684 1.574 3.379 1.266 9.636 1.516 9.675a.866.866 0 0 0-.15 0c-.034-.675-.193-1.202-.38-1.823-.502-1.677-1.09-3.35-1.662-4.971-.3-.858-.603-1.8-1.09-2.583a22.425 22.425 0 0 0-.902-1.336c-1.278-1.795-2.6-3.225-4.483-4.476-.902-.599-1.798-.905-2.751-1.454-.54-.312-1.991-1.356-1.91-2.118zm-7.958 2.094c-.802.685-1.475 1.506-1.81 2.454-.148.434-.125.553-.602.689-.31.083-.753.167-1.071.162-.396-.007 1.061-3.117 1.2-3.324a8.055 8.055 0 0 1 2.887-2.638c1.886-1 4.705-1.287 6.635-.223-.108.506-2.288.612-2.79.724-1.042.228-2.074.544-2.987 1.103-.501.305-1.002.658-1.462 1.053zm.078 9.174c1.69-.122 1.856.59 2.046 2.146.038.354.102 3.239.989 2.983 1.355-.386.27-2.144.593-2.963.078-.193 2.033-.492 1.187-1.781 1.266-.274 1.13.85 1.188 1.78 1.471-.063 1.833-1.109 2.963 0-.082 1.107-.392 1.982-1.188 2.373-.179 1.204 1.712-.124 1.782-.594 1.611.538-.605 2.078-.594 2.966 1.486.1 1.858-.912 2.374-1.78 1.34.814-1.467 2.44-1.78 3.558 1.35.166 2.228-.143 2.368-1.185 1.13.784-.568 3.74-1.182 4.744 1.052.632 2.707.043 1.182 2.371 1.514-.065 2.08-1.088 2.97-1.779 1.865 1.044 2.913-.138 4.693-.547-1.104 4.36-6.818 4.639-10.245 2.714a6.565 6.565 0 0 1-.438-.265c-2.09-1.376-4.499-3.103-5.878-5.264-.12-.052-.228.012-.342-.044-.68-.318-1.708-4.14-1.833-4.951-.937-.786-.923-3.16-.855-4.482zm-14.751 99.409c-3.456-1.567-.526-8.2 0-11.265 2.72 2.02-2.596 7.405 0 11.265zm-3.557-10.673c1.07 1.89.86 7.563 0 9.488-2.583-1.733-1.375-6.878 0-9.488zm-3.562 1.78c1.182 1.585.31 5.229 1.186 7.116-.476-.414-1.62-.925-1.78 0-2.281-1.461-.056-5.075.594-7.116zm-2.962.594c1.234.895-.309 4-.595 5.336-1.499-1.158.328-3.98.595-5.336zm-7.71 41.506c0 2.37-1.183 3.559-1.183 5.928-1.54-1.276-1.99-6.18 1.182-5.928zm-116.22-46.843c1.312.863 3.95.4 4.744 1.777-.965 1.12-4.693-.015-4.744-1.777zm1.78 16.01c1.173 2.046 2.835 5.395 5.338 7.113-.29-2.676-1.897-4.034-2.374-6.52 1.59 1.375 2.065 3.865 4.152 4.744-.945-2.021-1.11-4.82-2.372-6.523 1.655-1.81 1.622 3.088 3.557 2.963.289-1.87-1.067-2.094-.594-4.151 1.563.417 1.254 2.7 2.968 2.966-.502-2.464-1.53-4.401-1.188-7.71 1.728.647 2.322 2.424 2.964 4.151-.058 3.604-1.94 7.23-1.776 10.674.188 4.064 2.27 6.944 3.556 10.08.994 1.5 2.329 2.649 1.187 4.743-3.006-1.935-4.494-5.387-5.931-8.894-1.345 4.122 2.303 8.367 2.964 12.454-2.766.636-2.587-2.479-3.557-4.153-.859-1.482-2.2-5.39-4.15-7.112-1.695-6.212-5.568-10.248-6.524-17.2 1.626-.52 1.4 1.709 1.78 2.375zm-25.497-14.233c.383 1.793 2.692 1.655 3.556 2.966 5.328.801 10.844 1.413 14.825 3.557-4.475 2.075-9.604-1.15-14.231-1.186-1.704-.012-3.185.815-4.744.594-1.855-.262-3.705-1.473-5.336-1.778v-2.967c-2.254-2.096-3.489-5.208-5.929-7.114.78-1.84-.161-1.693 0-4.149 1.88.685 1.46 3.677 3.56 4.149-1.462-4.668-2.992-9.264-4.744-13.639.366-5.947-1.245-10.175-1.187-14.23 1.65-.95 1.64 2.56.592 2.371 1.869 2.678 2.631 6.462 3.557 10.08 2.387 5.125 4.792 10.232 6.524 16.012 6.047 1.858 11.531 4.28 18.974 4.743.108 1.669 2.818.739 2.372 2.963-7.37-1.13-14.676-2.32-20.752-4.743-1.218.686 1.543 2.364 2.963 2.371zm11.13-91.102c-.106-1.94-2.27-4.387-3.908-5.418-1.658-1.042-4.624-2.626-6.628-1.91 2.035-2.374 5.168-2.042 7.46-.238a8.925 8.925 0 0 1 2.695 3.518c.62 1.476.301 2.57.38 4.048zm-25.37 10.245c-.077-1.52.135-2.892.387-4.276.037-.207.077-.41.112-.618.642-3.483 2.174-7.272 4.601-9.921.835-.917 2-2.42 3.252-2.673.817-1.308 2.727-2.138 4.098-1.43 1.893.98 1.428 2.149-.02 3.258-.906.693-1.81 1.39-2.827 2.075-.912.617-1.783 1.202-2.536 1.959-.747.754-1.242 1.68-2.155 2.248-.316.769-1.104 1.618-1.549 2.438-.317.587-.77 1.599-1.214 1.96-.108.752-1.654 4.9-2.149 4.98zm11.869 7.925c-1.009-.219-1.117.461-1.186 1.185-4.487-.55-7.89.492-8.895-4.15 2.002 2.571 4.876.63 7.115 2.965.927-.417-1.133-3.346 1.78-1.779-.584-1.79-1.21-3.534-1.78-5.336 1.178.007.755 1.616 2.374 1.185 1.57-.857-2.179-1.324-1.187-3.559-.98-1.719.951 1.609 1.779 1.781 1.324-.088-.77-1.496 0-2.966 2.23 1.568 1.199 1.18 1.184-1.778.854-.663 1.447-.64 1.78.593 1.395-.188.352-2.813 2.373-2.374-.316 2.295 1.059 2.895.59 5.337 1.639-.14 1.356-2.205 2.375-2.963.048-.94-.285-2.264.593-2.374v2.374c-.072 2.744.15 3.431-.593 4.744-.237.41-.786-.555-.594-.593-.845.167-1.605 1.9-2.371 2.963-.804-.184-.493-1.482-.595-2.37-2.222.64-2.57 3.576-3.558 5.336-.284.508-1.554.571-1.184 1.78zm13.045 55.144c-3.286-1.063-3.04-5.656-5.337-7.706-.188-1.97-.09-3.65 1.187-4.153 1.486-.236 1.532.905 2.37 1.778.482.506.709 1.284 1.186 1.78.7.73 2.4 7.71.594 8.3zm13.637-36.761c2.007.361 2.114 2.63 3.558 3.555 1.02-1.528.736-2.023 2.372-.593 1.323-.086-.77-1.494 0-2.962 1.149.247 3.554 4.599 3.557.59 2.733 2.604 4.892 5.784 6.524 9.487.258.732.757 1.22 1.778 1.186-1.238 5.986 1.863 14.326.593 18.976-1.272-1.695-2.473-3.456-2.371-6.521-1.332.247-.017 3.146-1.187 3.556-.806-.184-.492-1.485-.594-2.372-1.13 2.54-3.877.193-4.743 2.372-1.94-1.013-.801-3.34-.594-5.337-1.377.598-1.91 2.041-1.776 4.15-1.568-.604-.909-3.441-4.152-2.37.575-2.098.374-5.222-.593-8.303.957-1.853 1.88 1.216 2.965 1.186.62-1.237-.065-6.24-2.965-5.928-.804.183-.49 1.483-.591 2.37-1.111-1.158-2.172-.182-3.559 0-3.349-1.623-8.812-3.522-13.046-2.37-.54-1.041-2.077-1.084-2.963-1.779-1.911-4.28-.106-7.295 1.776-10.673.94-.049 2.263.283 2.374-.595 1.746 1.414 3.728 2.596 4.15 5.337.222 1.953 3.15 1.199 2.965 3.556 2.363.191 4.38.036 5.334-1.183-.764-2.943 1.439-2.913 1.188-5.335zm-28.46-55.74c3.723-1.217 6.35-3.532 10.08-4.742 2.45.535 5.68.245 8.3-.595 3.391.56 5.28 2.626 8.892 2.966 2.075 3.46 5.392 5.68 4.746 11.858-.851-.73-1.124-2.038-1.186-3.556-1.996.545-1.01 3.586-1.185 5.337-.253 2.504.043 7.66-.594 9.488-.854-.136-.207-1.772-1.187-1.781-.762.994.654 4.854.594 7.118-1.154-2.65-1.279-1.101-1.188 1.775-.775-.208-.93-1.043-1.775-1.185.373 1.995-.766 5.509.591 6.522-1.411 1.942-1.69-2.215-2.372-2.963-1.872 1.53.594 3.715.594 5.336-1.501-.477-1.513-2.442-2.372-3.558-1.417 1.074-.335 4.643 0 5.929-2.485.706-1.058-2.5-2.372-2.963-1.67.598.165 2.518 0 3.556-2.021.44-.976-2.186-2.37-2.371-1.28 1.79-.5 1.79-1.78 0-1.287-.1-.27 2.103-.593 2.963 1.042 1.66-1.211-1.348-1.187-2.371-1.327.256-.241 2.922-.593 4.154-1.222-.165-.558-2.211-1.779-2.375.162.024-1.793 1.327-2.019 1.416-1.006.394-2.105.837-3.195.94-1.096.105-2.241-.006-3.344.004.862-.46 1.967-.585 2.858-.898.89-.314 1.823-.782 2.682-1.158.933-.408 1.583-1.16 2.408-1.81.944-.742 1.829-1.78 2.844-2.393.037-.096-.005-.178.035-.273.966-.432 2.017-1.836 2.717-2.697.807-.996 1.401-2.03 2.072-3.158.632-1.063 1.7-2.263 2.48-3.472.617-.952 1.79-2.449 2.037-3.556.545-.486 1.017-1.88.67-2.677-.423-.97-1.11-1.122-.598-2.127.103-.2 1.966-3.05 1.993-3.045-1.307-.247-1.307-.759 0-2.37-.26-.882-.76.232-1.781 0 .173-1.211 1.606-1.163 1.78-2.374.181-1.204-1.712.12-1.78.593-1.607-.535 1.356-1.327 1.187-2.371-.148-.745-1.18-.598-1.187 0-1.817-.581.683-1.58.593-2.372-1.062-.078-1.249.726-2.372.593.674-1.303 1.984-1.97 2.372-3.558-2.12.446-3.766 1.373-4.15 3.558-2.572-.813.044-2.441.593-3.558-.368-.898-3.19.716-3.558 1.778-1.437 1.102 1.052-2.456 1.185-3.557-2.823-.057-2.814 2.722-5.337 2.964.569-1.212 1.213-2.346 1.78-3.556-1.915.453-3.102 1.639-3.556 3.556-1.4-.5.493-2.602.591-3.556-1.368.807-3.308 1.039-2.965 3.556-1.175 1.553-.287-2.336 0-2.964-1.342.633-2.153 1.8-2.37 3.557-1.74-.502.353-1.909 0-2.963-2.123.246-1.298 3.446-3.559 3.557.314-.478.618-.964.592-1.779-1.31.468-1.482 2.073-2.37 2.965-1.476-.089-.173-2.007 0-2.373-1.67-.085-1.712 1.451-1.78 2.967-.48-.113-.591-.596-1.187-.594-1.342.437-1.296 2.258-2.962 2.373v1.777c-1.4.184-1.106 2.061-2.966 1.781.125 1.014-1.01 1.534 0 1.777-.885 1.488-3.161 1.585-3.56 3.557.02.579.729.461 1.188.594-.066 2.102-1.96-1.263-1.778.592-1.359-2.76 2.786-5.106 2.964-8.3a85.635 85.635 0 0 0 9.488-9.488zm50.402-4.15c-.015 1.742-4.455.946-4.153-1.187 1.428.242 1.288-1.082 2.965-.593.51.478.353 1.626 1.188 1.78zm12.449 15.418c-1.298-1.682 2.26-1.8 3.559-2.374 1.769-.782 3.442-2.345 5.334-1.778 1.868-.705 3.139-2 5.337-2.372.02 1.492-1.996 1.979-2.963 2.372-3.417 1.392-8.063 1.938-11.267 4.152zm20.755-8.304c-.381 1.795-.927 3.423-2.966 3.558-.462-2.637.56-3.79 2.966-3.558zm-2.371 19.569c-1.278-.502-.96-2.603-1.78-3.558-.713.945.196 5.312.594 7.118-.73-.262-1.221-.761-1.186-1.781-1.287-.103-.271 2.103-.594 2.965-1.23.364-.83-.655-1.188-1.184-.668-1.01-1.616-2.317-2.369-4.154-1.321.605.775 2.727 0 4.744-3.442-2.883-5.103-7.547-6.525-12.452 1.044.54 1.086 2.079 1.783 2.965 1.614-.544-.83-1.855 0-3.558.64.146.4 1.18 1.183 1.187.978-.082-.621-2.473 0-4.15.802.581 1.185 1.583 1.78 2.37 1.23-.15.162-2.605 1.185-2.964 1.513 1.45 2.027 3.902 2.963 5.93.65-.306-.434-3.875 0-5.93.556.336.9 1.649 1.188.594 3.03 1.908 1.833 8.05 2.966 11.858zM115.548 159.1c.969 3.009 1.345 6.455 2.372 10.08.614 2.162 1.419 5.466 2.966 8.3.524.96 2.324 2.949 3.56 4.153 2.243-.748 3.401-1.064 4.148-3.558.62-2.068-2.504-18.112-4.148-23.718-1.657-5.628-3.91-11.202-4.745-17.196 1.303.53 2.212 4.167 2.659 5.289 1.625 4.115 3.016 8.321 4.314 12.546 3.339 10.855 6.178 22.034 7.393 33.344.258 2.396.461 4.819.462 7.226.007 2.577-2.682 3.241-4.901 3.446-2.4.217-4.746.623-6.675-1.033-.984-.844-.82-1.721-1.15-2.89-.393-1.38-1.07-2.722-1.567-4.072-2.135-5.772-3.898-11.68-5.548-17.61-1.147-4.125-1.907-8.477-3.292-12.525-1.534-4.499-3.421-9.913-5.927-14.234-1.435-2.477-3.07-4.833-4.744-7.115-2.439-3.324-4.698-5.157-5.337-10.08h1.185c1.858.774 2.895 2.736 4.152 4.15 1.281 1.442 12.167 17.246 14.823 25.497zm-8.301-98.43c2.573-.391 2.374-3.557 4.15-4.744 7.18-.052 11.59.616 17.791-.593.96 2.203.492 5.834.592 8.894-1.61.424.424-2.794-1.186-2.37-.525.884-1.164 6.04 0 8.3-.732 1.076-1.732-2.577-1.78-4.15-1.508 1.95-.555 2.89-1.185 5.931-1.394-1.178-1.01-4.13-1.778-5.931-1.605 1.163.362 5.897-1.188 7.115-.916-.86-1.245-2.314-1.186-4.151-.956 1.534-1.26 3.715-.591 5.336-1.214-1.158-1.769-2.973-1.778-5.336-1.653-.95-1.642 2.561-.594 2.373-1.738 1.887-2.16-2.552-2.371-4.15-1.328.253-.243 2.92-.595 4.15-.88-.502-.856-1.91-1.184-2.965-1.687-.104.715 3.877-1.78 2.965.038-1.278-.695-4.763-1.779-2.965-1.768-.823-.084-5.446-2.965-3.56.343-1.924-.405-2.756-.593-4.15zM91.829 181.04c1.394.19 1.327 1.835 2.374 2.37-1.397 2.124-4.14-1.18-2.374-2.37zm-7.706-11.265c-1.279 1.618-4.195-.117-3.559-2.373 2.082-.106 1.952 2.004 3.559 2.373zM74.043 89.13c-.725-1.253-2.233-1.719-2.372-3.556-1.74.505.77 1.492 0 2.963-.722-1.254-2.232-1.72-2.372-3.557-.758.136-.777 1.771 0 1.781-.893 1.043-2.613-2.099-2.966-3.558 1.663-.007-1.41-1.62 1.186-1.185-.341-1.24-1.47-1.694-1.186-3.56 1.12.066.413 1.964 1.779 1.779.097-1.877-1.575-1.983-1.187-4.15.782.208.933 1.043 1.78 1.187-.065-1.476-1.11-1.838 0-2.967 1.235.347 1.916 1.248 2.966 1.78-.509-.477-.354-1.626-1.186-1.78.537-1.605 1.325 1.356 2.37 1.187 1.753-.516-1.374-.888-.593-2.372 2.383 1.392 2.349-1.585 5.337-1.184 1.65-1.12 1.974-3.562 5.337-2.967-.087 1.432 1.723 5.104-.594 3.558 1.258 2.895 2.447 5.858 2.966 9.489-1.486-1.481-1.682-4.249-2.966-5.93-1.585-.176 1.578 2.299-1.184 1.778.895 1.084.629 3.322 1.778 4.152-.888 1.78-1.062-2.036-2.372-1.781.673 2.689 1.542 5.18 2.372 7.71-1.14-1.825-3.275-2.658-3.556-5.338-1.125 1.938 1.36 5.342 1.778 7.71-1.57-1.395-2.227-3.702-3.56-5.339-.78-.283-.032 2.72.594 2.967-.636 1.167-2.143-1.764-2.372-2.967-1.498 1.347.785 3.929 1.186 5.338.169 1.06-.56 1.216-.592.593-.39-1.983-1.845-2.9-2.372-4.743-1.737.503.356 1.908 0 2.962zm-11.268 85.981c3.689-3.626 7.791-6.837 13.045-8.895.114-.673.597-.329.594 0-4.232 1.894-6.695 5.561-10.08 8.302-1.812-.43-2.16.605-3.56.593zm1.187 1.185c1.486.49 1.877 2.077 2.963 2.966.907-.01 1.303-4.394-.592-3.557 3.386-3.732 7.705-6.528 12.453-8.896 1.433-1.296-.926 1.122-1.187 1.779-.15 3.725 4.685 4.224 7.709 2.965 1.796 2.951 4.335 5.153 5.93 8.302-1.23.35-2.022 1.138-2.372 2.372-.284 1.865.845 2.318 1.187 3.558 1.417-.362 4.3.743 4.744-.593 3.1 3.221 5.043 7.605 7.706 11.264-1.267 1.302-4.222.918-4.15 3.56.179 4.531 7.156 1.351 8.3 3.557-.161 2.12-2.856 1.8-4.15 2.37-3.59 1.593-8.951 3.796-11.858 7.116-.694-.887-1.711-1.448-1.779-2.963.852-1.765 1.494-.038 2.963-1.187-.391-2.375-.372-5.16-1.184-7.115-1.653 1.595-.094 3.312-1.185 4.743-1.588-2.366-1.371-6.536-2.966-8.895-6.082-5.834-17.055-10.098-29.056-8.893-2.224.224-5.024 1.823-7.113 1.187-.188-1.945 2.468-1.378 3.556-1.781 3.087-1.141 7.704-2.97 12.452-3.557-.392-3.165-1.584-5.53-2.371-8.302zm-30.835 68.192c1.872-.29 2.094 1.067 4.15.594-1.848 2.836 2.83 1.104 1.78 4.743 2.018-.159 1.679-2.674 2.966-3.56.582.431-.194 4.517-.594 5.928 1.913.531.833-1.931 1.778-2.368 1.468.569-.815 2.274 0 4.15 1.714-.856.927-4.212 3.559-4.15-.588 1.585-1.223 3.127-1.184 5.333.895-.158 1.872 1.33.591 2.967 2.893-.862 2.4-5.111 4.744-6.524.388 1.4-2.006 5.093-2.373 7.711.066 1.473 1.11 1.832 0 2.963-.805-.185-.491-1.485-.592-2.37-.553.435-.898 1.076-1.186 1.775-.695-.093-.499-1.081-.593-1.775-1.293-.381-1.887 1.68-1.778-.593-1.897.673-.563 4.574-2.966 4.743.179-3.22-.814-3.943 0-6.525-1.435.742-1.918 2.433-2.371 4.15-1.346-.629-.227-3.726-.593-5.337-1.84.14-1.85 2.105-2.372 3.562-.882-1.098-1.137-2.818-1.185-4.747-1.219.168-1.185 1.585-1.781 2.372-.803-.183-.492-1.482-.593-2.372-2.025.244-.754 1.603-2.963.595 2.094-2.848.574-9.308 3.556-11.265zm-3.556-21.942c.046.48 1.635 2.852 0 1.78-1.458-6.19.81-13.284 2.963-17.789 2.364-.06-.667 3.294-1.184 4.15.199 3.486-2.24 7.072-1.779 11.86zm88.349 185.596c-1.153 1.306-2.847-1.863-3.556-2.966-3.546-1.79-5.894-4.78-8.895-7.113.788 2.519 3.187 4.018 4.743 5.927 1.585 1.943 2.613 4.065 4.152 5.93 1.613 1.959 3.247 3.86 5.337 5.336-2.494.642-3.284-2.46-4.746-4.149-1.001-1.153-2.473-2.143-3.559-3.557-1.187-1.558-2.716-4.777-5.334-5.337-.31-.879-.879-1.496-1.184-2.374-.952-2.212-3.693-2.634-4.153-5.335-1.993-.575-2.956-2.183-4.152-3.56-1.37-1.195-3.166-1.967-3.557-4.147-1.21-.57-2.345-1.212-3.556-1.782-1.443-2.512-2.966-4.94-5.337-6.521-1.359-4.966-4.95-7.698-7.71-11.265-.44 2.132 2.107 3.783 3.56 5.93.685 1.014 1.09 2.465 1.775 3.556.653 1.033 1.936 1.676 1.781 2.965 3.509 3.41 5.923 7.911 8.894 11.86 3.223 3.73 6.416 7.373 9.486 11.267 2.283 2.89 4.57 5.278 7.118 8.3.739.873 1.805 1.78 1.778 2.965-2.116-1.243-3.39-3.332-5.336-4.743-1.127.056.369 2.313 1.185 2.372-1.699.583-4.158-4.269-6.523-5.337 1.185 2.966 3.771 4.53 5.338 7.114 1.785 2.368 4.145 4.158 5.927 6.522-.173 1.412-1.601-.659-1.775-1.185a54.748 54.748 0 0 1-9.49-8.894c1.943 4.583 5.157 7.888 8.303 11.266-1.44 1.206-3.127-2.38-4.744-2.964-1.769-1.196-2.927-3.005-4.743-4.15 2.365 3.364 5.168 6.293 7.707 9.486-3.335-2.198-5.094-5.973-8.894-7.709-.183-1.398-2.06-1.102-1.778-2.963-2.164-.405-2.894-2.249-4.744-2.966-3.271-5.227-8.64-8.36-11.265-14.231-7.73-9.07-14.274-19.33-19.568-30.833-5.24-8.835-9.125-19.944-14.232-29.647-.62-1.178-.62-3.21-2.372-3.56 1.048-3.115-1.12-6.833-2.963-8.892v-2.373c-3.933-7.531-5.761-17.17-8.304-26.09 1.312 1.058 1.765 3.051 2.374 4.744 1.61 4.503 2.668 10.926 5.93 14.824.099 4.049 2.495 5.804 3.557 8.895.39.795 1.267 1.104 2.371 1.186-.017.575-.726.459-1.184.592 3.677 4.225 4.514 11.294 8.893 14.822.608-2.746-1.684-7.29-2.965-10.079.21-.83 1.045-.051 1.185.593.434 1.346 1.786 1.774 2.967 2.372a81.17 81.17 0 0 1 5.929 9.487c1.806 3.385 3.244 6.948 5.928 9.486.902-.938-1.448-3.661-2.37-4.742-1.275-5.844-4.405-9.826-4.744-16.603 2.425 2.826 3.289 7.52 6.52 10.08-.686-4.517-1.88-6.367-2.369-11.859 1.649 3.487 3.92 6.356 5.337 10.082 1.127-2.139-.973-6.13-1.781-8.303 2.114.297.493-3.25-.593-4.744 1.329-.55 2.683 2.443 3.558 4.151.982 1.912 1.28 4.513 2.372 5.931 1.293-2.107-1.621-5.084-1.778-7.71 3.814 3.696 3.964 11.059 8.302 14.231-.486-4.46-3.667-6.215-4.153-10.674 2.14 2.095 2.777 5.128 4.153 7.71 1.344 2.526 3.638 4.675 4.15 7.708 1.059-.167 1.216.56.594.594.33 1.338.924-.72 1.777.591 6.126 13.14 13.455 25.381 21.346 37.355.41.627.66 1.713 1.187 2.374.842 1.056 1.822 1.906 2.964 3.556 1.077 1.56 2.728 3.38 4.152 5.337 1.821 2.51 3.643 5.106 5.334 7.708 1.681 2.587 2.98 5.375 4.743 7.711 2.795 3.69 6.432 6.765 10.08 9.486-1.567 1.337-3.372-2.136-5.334-2.372-2.593-3.93-6.184-6.859-9.49-10.08-3.297-3.216-6.532-6.518-10.08-9.488 1.728 3.416 3.847 6.436 6.524 8.895zm38.543 52.18c-1.307-.072-.252-2.515-.592-3.556-1.901.666-1.682 3.46-2.372 5.337-1.512-.661.236-4.59-1.188-5.337-1.476 1.482-2.558 4.496-1.778 6.522-2.187-.35-1.411-3.932-1.187-5.929-1.854.316-2.134 2.21-2.37 4.15-.818 1.886-.587-2.098-.592-2.965-.798.387-1.105 1.266-1.188 2.37-1.342-.438-1.297-2.26-2.964-2.37 1.703-5.935.665-12.92 0-19.567 1.331-1.117 4.4-2.729 5.93-1.778 1.766-.015.76-2.8 1.779-3.56 1.813-.432 1.742 1.024 3.558.592-.762 5.815-2.528 13.612-1.188 19.57.149.746 1.18.596 1.188 0 1.65-.268-.467 3.23 1.184 2.965 1.332-2.23.93-6.186 2.372-8.302h4.745v5.927c-.313 2.261-.962 4.022-1.779 5.932-.4.931.332 2.05-1.187 1.78-.509-2.992-.159-3.316 0-6.525-1.672.7-1.803 2.94-2.37 4.745zM219.91 347.07c-1.58 3.5-4.083 7.258-5.933 11.267-.384.835-.167 1.522-.591 2.368-.273.55-.982.802-1.184 1.187-1.376 2.62-2.244 5.173-3.562 7.71-2.517 4.865-5.683 9.17-7.705 14.23-5.468 5.998-10.1 12.829-14.232 20.16-9.38 8.605-15.998 19.976-26.682 27.277-.082 1.105-.391 1.98-1.187 2.37-.273 2.89.622 6.948-.591 8.898-1.273-2.09-1.244-5.48-1.188-8.897-.057-1.522-2.312-.846-2.372-2.37-1.913 1.122-1.862.597-5.337.593-.863-.003-2.474-.541-2.962.592-2.873-2.465-5.524-5.152-7.115-8.895.792 1.058 3.662 1.604 2.37 2.964 2.751-.646 5.026 2.73 8.302 3.557 5.98 1.518 9.957-1.154 14.23-3.557-.133-.757-1.77-.776-1.78 0-1.606-.366-1.474-2.476-3.557-2.371-.48.114-.591.597-1.186.59-1.577 1.43.821 3.153-1.185 4.155-6.378.052-10.036-2.615-13.639-5.338 3.266-5.482.72-13.567 1.189-20.16 3.213 5.332-.86 18.418 4.743 21.344 2.257-2.089 3.332-5.36 3.555-9.487 2.035 1.13.522 5.806 2.372 7.118 2.663-.106 4.303-1.235 5.93-2.374-.2-2.856-.166-6.327 0-9.487.533-10.052-.547-20.676-2.37-29.646-.978-1.792-4.114-1.42-4.744-3.557-.355-3.122.438-5.096.59-7.709-3.08 3.438-3.477 9.565-8.893 10.671-.552 4.302-.687 11.737-.593 18.383-1.229-.153-.162-2.603-1.184-2.965-2.375 2.25-1.843 6.489-2.375 10.08-.754 5.143-2.348 10.34-1.775 14.23-.405 1.3-1.973-1.122-2.375-1.777.881-.704.922-2.24 1.782-2.967.558-11.764 4.897-25.168 2.963-35.576-3.022-1.3-2.757-4.177-4.152-5.93-2.02.35-1.462 3.282-2.962 4.153-2.287.333-5.414 2.151-7.711.59-1.77 3.898-1.71 10.01-1.185 15.418.21 2.153 1.509 4.65 1.78 7.116.443 4.045-.111 7.748 3.557 8.894 1.17 2.781 1.974 5.931 4.745 7.116-1.529 1.677-2.56-2.149-4.154-2.373-.178-2.19-2.519-2.222-3.555-3.557.134-2.509-.934-3.81-1.782-5.337-.44-2.954.369-3.493-1.183-5.337-1.208.573-1.282 2.278-1.186 4.15-2.17-.44-.303-3.806 0-5.336-.222-5.901.548-12.804-.593-17.789-3.528.937-6.785-1.341-8.303-4.148-.976.081.62 2.473 0 4.148-3.445-2.543-4.323-10.616-3.559-15.417 1.213 1.752.618 5.313 1.781 7.118-.319-.492.888-3.565 1.065-4.193.369-1.323.783-2.64 1.377-3.88.44-.906.975-2.167 1.611-2.944.952-1.15 2.087-.714 3.335-.481 1.631.302 2.084.744 2.148 2.534-.176-.048-4.017-1.695-3.605-.522.717 2.048 1.604 3.927 1.184 7.112.804-1.367 1.706-2.645 1.78-4.744 2.755.602-.105 6.824 1.78 8.303-.454-.355.837-5.2.95-5.822.212-1.196.412-2.399.627-3.597.188-1.043.741-1.815 1.02-2.835 1.244-.477 2.396-1.559 3.686-2.08.788-.318 2.902-1.598 3.722-1.126 1.03.598.562 2.92 1.259 3.601-.702-.682-2.097-.67-3.56-.594.202 1.975 1.72 2.63 1.189 5.338 2.555.777.733-2.823 2.966-2.372-.346 1.923.402 2.758.59 4.15-.45-3.299 1.714-7.449 4.063-9.6 1.153-1.055 2.703-2.163 4.22-2.611 1.147-.34 1.301.1 2.012.968.656.799 1.462 1.39 2.193 2.13.628.226 1.57.862 1.916 1.486.292.531 1.515 5.485 1.174 5.805 1.05-.994 1.18-2.358 1.748-3.566.369-.783.538-1.226.806-2.06.195-.608.332-1.472.911-1.768.491-1.06 1.522-1.214 2.312-1.93.853-.776 1.452-1.766 2.365-2.494 1.742 1.424 4.006 2.321 5.93 3.56.872 3.081.547 7.355.591 11.265-.007-.69 1.256-2.109 1.583-2.794.463-.97.685-2.014.932-3.055.286-1.2.341-2.524.614-3.71.302-1.308.951-1.617 2.135-2.182 1.632-.782 1.605.999 3.198 1.068.335.014 2.038 1.518 2.287 1.846.808 1.082.394 2.642.445 3.915.118 2.832.666 5.63.666 8.47 1.384-2.372 1.972-5.537 2.374-8.893 2.648-.456 4.142-3.395 6.522-2.372 1.718 3.638 2.09 7.504 2.37 11.265 1.115-1.852 2.577-3.355 2.374-6.52h2.962c1.33 5.171-1.012 11.571-2.962 15.417-1.052-.137-2.973.596-2.375-1.189-1.771 3.567-1.882 8.793-1.775 14.232 1.485-.246 2.175-1.95 2.963-2.964 1.982-2.56 4.366-6.16 6.524-9.486 2.789-4.309 5.168-9.12 8.893-12.455 3.257-7.412 7.975-13.366 10.08-21.936 2.9-3.82 4.362-8.75 6.525-13.05 2.122-4.221 4.559-8.192 6.52-12.45-.832-.713-.05-.23.59 0-1.644 4.017-3.4 7.543-5.335 11.861-.54 1.204-1.245 2.327-1.775 3.557-1.168 2.7-1.739 5.571-2.967 8.302zm-26.094 70.561c-1.076-2.48 3.036-4.858 4.155-7.117-.713-.676-1.67.646-2.372 1.188-1.762 1.344-4.943 3.933-5.932 6.522-2.365.995-3.885 2.833-5.335 4.743-.862-.263.06-.52 0-1.186a12.073 12.073 0 0 0-3.556 3.557c-1.316-.78.724-1.836 1.183-2.37 1.793-2.094 4.59-5.262 6.52-7.71 4.161-5.086 8.461-10.16 12.456-15.418 4.049-5.327 7.324-11.132 11.86-16.007.912-2.45 1.57-5.152 4.152-5.929-3.008 5.298-5.594 11.012-8.307 16.601.643 1.169 2.149-1.763 2.375-2.965 1.95-.22 1.197-3.15 3.557-2.965.434-1.951 1.93-3.782 2.967-5.334.966-1.455 1.718-3.533 3.555-4.153-3.357 4.745-5.72 10.484-8.298 16.01 1.105 1.07 2.64-2.467 2.961-4.152 2.714-1.636 4.147-4.55 5.933-7.113.463 2.26-3.041 5.647-3.561 8.894-5.796 7.242-10.671 15.416-16.601 22.53-4.338 2.382-6.76 6.683-10.08 10.08-.507-1.907 1.747-6.148 3.556-7.706-.144-.748-1.177-.597-1.188 0zm63.451-141.716c-.265.86-.521-.061-1.187 0-1.843.86-2.08 3.977-1.186 5.928-3.079 1.8-.26 5.98-2.965 7.71-.317 2.292 1.06 2.893.596 5.335-.478-.314-.965-.617-1.78-.592 1.383 5.03-1 7.51-1.781 11.857-.728-.256-1.217-.758-1.189-1.775-2.687 1.202.387 4.594-1.774 5.928-.855-.133-.21-1.77-1.189-1.78-1.447 2.086-.419 3.805-2.368 5.929-1.57-2.747-3.195 1.503-4.155 2.966-.802-.183-.493-1.486-.59-2.372-1.707 1.065-2.943 2.592-3.56 4.743-1.308-.074-.252-2.515-.594-3.557-1.762.805-2.46 2.678-3.557 4.15-1.774-.39.571-1.266 0-2.37.184-1.854-1.712 1.506-1.78-.594-1.936 1.166-3.638 3.894-2.369 6.524-2.22-.55-.772-4.763-1.187-7.118-2.144 1.431-3.938 4.977-2.37 8.302-2.422-1.78-.65-5.734-1.78-7.708-1.038 1.134-1.255 3.094-1.78 4.744-1.211-2.221-.845-7.943.592-9.487.531.262 1.062.522 1.188 1.186 1.94-2.132 5.082-.743 6.523-2.375.957-.166 1.02.561 1.777.595 2.543-1.411 4.618-3.291 7.712-4.15.472-2.49 2.88-3.045 2.96-5.93 1.677-.5 1.637-2.714 3.558-2.964-.023-1.015.444-1.536 1.19-1.781-.408-2.992 3.5-4.772 2.37-6.52.58-1.816 1.584.68 2.372.59 1.359-.463.578-3.67-1.189-2.963 2.602-1.293-.13-4.343 3.562-4.149.025-1.015-.445-1.536-1.187-1.78.598-1.18 1.022-2.534 2.375-2.965.062-4.285 3.281-5.414 4.15-8.894 2.673-.737 1.345 5.566 1.181 1.184-1.592-.409-1.144 1.225-1.776 1.781-.169 1.35.14 2.23 1.187 2.372zm-75.9-23.127c-4.022 4.083-9.736 6.471-15.415 8.893 1.52-1.843 3.862-2.883 5.927-4.15 2.862-1.75 5.614-3.875 9.487-4.743zm11.861-68.782c1.273-1.096 1.245-3.493 4.15-2.966.28 2.654-1.775 2.968-4.15 2.966zm-7.71 13.637c.315-.476.617-.96.59-1.778 1.677-.49 1.538.837 2.966.592.511 2.243-2.653 2.1-3.556 1.186zm2.961 3.56c1.247-1.13 3.132-1.615 2.968-4.151-.024-1.957-1.688-2.267-3.555-2.372.53-4.208 3.368-6.114 4.743-9.487 2.754 2.876 6.794-.367 7.706-2.965-.709-1.468-2.032-2.32-3.557-2.965 1.65-3.687 4.494-6.177 5.932-10.081 1.046.534 1.727 1.433 2.96 1.78 1.73-.643 3.51-1.24 4.153-2.968.341-2.516-1.598-2.75-2.964-3.555.01-1.77 1.54-2.018 1.775-3.556 5.059 1.268 8.596 4.056 12.454 6.52-1.234 2.107-1.48 4.973-4.741 3.56-1.626 2.127-2.833 4.68-4.744 6.519-.102 2.08 2.084 1.868 2.963 2.967-1.139 1.627-1.396 4.14-1.776 6.522-.083.505-1.558.534-1.882.596-1.014.203-.671-.039-1.07.884a147.848 147.848 0 0 1-1.874 4.071c-.257.539-.598 2.068-1.057 3.312.42-.696.791-1.431 1.177-2.09.701-1.19 1.526-2.596 2.674-3.407 1.395-.987 2.602-2.225 4.021-3.25.858-.623 1.991-.926 2.97-1.281 1.488-.536 2.655-1.352 4.252-1.443 1.704-.099 3.427-.466 5.14-.688 2.167-.28 4.41-.417 6.654-.313 4.064.19 8.019.885 11.639 2.55 3.232 1.486 7.128 3.436 9.12 6.625-1.988-.779-3.889-1.524-5.97-2.007-6.793-1.573-13.159-2.656-20.155-1.523-3.204.52-6.36 1.412-9.328 2.73a31.822 31.822 0 0 0-4.08 2.166c-.754.478-3.143 1.68-3.418 2.554-.952 3.005-1.795 6.112-2.969 8.897-1.336-.444-.23-3.327-.587-4.743-2.192.514-1.039 5.023-.595 6.519-3.434 4.473-3.377 12.437-5.336 18.382-3.436-1.927-2.851-8.91-2.375-13.046.435-1.616-1.176-1.191-1.186-2.369-3.841-2.68-7.523-5.52-14.23-5.337.441-1.826-1.626-1.139-1.185-2.965.73-.258 1.217-.76 1.186-1.778 1.837-.061 3.29.267 4.147 1.185zm-29.052 8.894c4.859-1.69 10.025 1.433 14.824 1.779-.557 2.25-2.746.27-4.149 0-3.117-.611-6.71-1.05-10.675-1.779zm3.069 26.88c2.664-2.636 4.995-5.307 7.02-8.302a44.055 44.055 0 0 0 2.211-3.621 27.632 27.632 0 0 1 1.674-2.651c.568-.802 1.635-1.603 1.841-2.577.874-.514 1.38-1.884 1.945-2.674.697-.973 1.328-2.104 1.956-3.159.888-1.495 1.803-3.396 3.17-4.5 1.151-4.537 11.461 2.457 13.286 3.567-1.39 5.912-.894 14.85 6.489 16.031-.415 1.456-.81 2.908-1.414 4.328-.43 1.003-.835 1.773-1.356 2.745-1.601 2.997-2.383 6.1-3.866 9.116-.434.878-1.234 1.694-1.8 2.567-1.21 1.861-1.58 3.895-2.68 5.868 1.562-3.703 1.092-8.698-3.283-9.825-4.648-1.194-10.055 2.037-13.95 4.22-2.377 1.332-4.65 2.835-6.883 4.39-.745.52-6.285 3.749-6.242 4.438.092 1.478-.93 1.84-1.187 2.968-.431 1.906.893 5.824 1.844 7.49.955 1.68.421 1.258 2.368 1.628 1.477.28 3.197.388 4.691.24 2.126-.208 3.874-.807 5.72-1.726a70.076 70.076 0 0 1 5.393-2.391c1.026-.4 2.31-.699 3.393-1.255-.671.998-1.184 2.344-1.723 3.068-1.283 1.716-2.838 2.74-2.87 5.11 3.017.554 4.28-3.28 6.537-4.678-1.648 1.137-2.382 3.955-3.426 5.755-1.343 2.319-2.986 5.121-3.961 7.598-.605 1.545-1.721 2.406-2.242 3.674.03-.076 7.886-.26 8.587-.202.88.7.924 2.239 1.78 2.963 1.896-3.043 4.796-17.145 5.848-20.247.858-2.526 1.611-5.508 2.905-7.801.974-1.729 1.457-3.784 2.47-5.572.793-1.394 2.32-2.845 3.552-3.903a25.882 25.882 0 0 1 4.868-3.273 27.289 27.289 0 0 1 2.471-1.128c2.201-.883 3.822-1.294 6.197-1.538 1.267-.13 2.542-.307 3.782-.61.522-.125 2.486-1.13 2.891-.993-1.163-.39-.184-4.085 0-1.186 1.352-.823.222-4.128.592-5.928-1.023 1.347-2.448 2.29-2.372 4.743-1.956-1.995 1.775-3.339.592-6.523-1.587.588-.732 3.615-2.961 3.557 1.051-1.12.429-3.915.594-5.929-1.222.273-1.377-1.554-1.19-4.15-1.093.089-.361 2.008-1.185 2.372-.488-.917.704-5.205 1.185-7.117-1.8-.219-1.228 1.931-1.78 2.968-1.587-2.214-.038-6.345 0-8.897-.916.861-1.244 2.315-1.181 4.152-1.283-2.88.778-7.51.59-11.267-.88.504-1.275 1.492-1.184 2.966-.049-.76-.584-1.494-.593-2.323-.01-.836.212-1.627.555-2.38.598-1.323 1.019-2.756 1.712-4.03 1.457-2.668 4.112-4.273 7.075-4.742 3.508-.56 7.765-.846 11.286-.114 3.939.813 8.416 3.36 11.452 5.976 1.665 1.433 3.074 3.356 4.612 4.936.835.862 1.681 1.718 2.516 2.587 1.035 1.081 1.928 2.529 3.252 3.3.463 1.277 1.693 2.357 2.358 3.591.812 1.5 1.525 3.16 1.878 4.835.347 1.658.756 3.156.927 4.863.172 1.76-.024 3.458-.204 5.2-.019-2.256-1.181-4.205-2.364-6.024-.621-.956-1.283-1.975-1.728-3.04-.246-.593-.444-1.218-.466-1.865-.01-.171.308-1.966.424-1.878-.598-.458-1.482-3.562-2.37-1.777-.806-.184-.492-1.486-.595-2.371-.813-1.365-2.44-1.91-3.56-2.967v-1.777c-1.11-.131-1.997-3.458-2.962-1.779-1.019-.762-.734-2.823-2.375-2.967.464.53.642 1.341.595 2.373-1.348-.434-1.773-1.785-2.372-2.965-.129 2.406-2.102-.055-2.966-1.778-1.322.087.772 1.494 0 2.963-1.212-.958-1.492-2.852-2.37-4.15-1.615.545.83 1.853 0 3.557-.96-1.413-1.552-3.19-2.967-4.15-1.433.54 1.346 1.752.593 3.558-1.191-1.179-1.935-2.806-3.557-3.558-.086 1.472.31 2.46 1.188 2.965-1.524 1.676-2.562-2.15-4.15-2.371-1.998 1.278.777 2.721.593 4.149-1.457-.72-1.586-2.76-3.56-2.963-1.496.78 1.558 1.944 1.186 3.557-2.557-.01-2.186-2.954-4.743-2.963-1.66.762 1.867 1.225 1.188 2.963-.962.168-1.024-.56-1.78-.594-1.409.176.66 1.607 1.184 1.78-.182.804-1.484.492-2.372.594.333.854.926 1.446 1.78 1.779-.26.88-.757-.235-1.78 0-.025 1.013.444 1.536 1.188 1.777-.146.746-1.18.599-1.188 0-1.125.058.37 2.317 1.188 2.372-.146.646-1.18.403-1.188 1.186 1.626 1.413.034 2.611 1.775 4.148.53.464-.275.575-.299.66-.145.463-.261.847-.169 1.52.15 1.136.478 2.24.902 3.304a20.623 20.623 0 0 0 3.465 5.736c2.294 2.67 4.33 5.092 7.046 7.187.41-.123 3.392 2.559 3.885 2.942.674.533 1.684.913 2.432 1.36.867.521 1.827 1.17 2.843 1.369 1.286.252 2.584.135 3.902.232-1.013.479-2.392.744-3.595.799-1.77.081-4.546-.696-6.177-1.385-1.982-.841-4.184-4.97-4.744-1.188-1.282.099-.27-2.105-.592-2.966-1.593-.407-1.144 1.226-1.777 1.78-1.326-.088.77-1.495 0-2.965-2.258-.873-.12 2.65-2.374 1.78v-1.78c-.795.39-1.104 1.267-1.186 2.37 3.995 1.737 6.596 4.868 11.268 5.931.207.778 1.041.932 1.187 1.781.01.074.158.192.207.266-1.308-1.043-3.233-2.31-4.942-1.44 1.912.294 3.412 1.087 5.038 2.138 1.337.869 2.503 2.104 3.344 3.527 1.815 3.073 2.867 6.666 3.214 10.27.1 1.024.198 1.983.212 3.056-.732-1.744-2.22-3.114-4.097-2.979 1.593 2.026 1.785 4.873 1.795 7.346 0 .74-.26 8.618-.62 8.648 1.64-.14.21-3.347 2.367-2.966-1.582 9.285-2.538 15.822-9.487 23.124-21.28 13.365-26.833 10.791-33.204 11.268-3.948-.4-6.766-1.929-10.674-2.37-.029 1.805.54 3.016 1.78 3.558-.264 4.215 1.873 6.032 4.744 7.114-1.592 1.981-3.962-.436-5.93-.594-1.091-.086-1.964.92-2.963.594-3.765-1.227-5.38-4.259-7.117-7.708-1.13 3.314 2.65 6.829 3.557 10.08.176 1.21 1.604 1.163 1.78 2.371 6.413 1.89 9.655 6.947 15.417 9.487.613 1.562.709 3.639.593 5.928-2.175 1.776-3.18 4.73-4.744 7.117-1.53-.144.816-1.02 0-2.372-.728.26-1.221.762-1.185 1.781-1.754-2.412 3.738-8.18-1.19-8.894-.118.216-1.166 1.655-1.18 1.777-.15 1.253 1.134 2.615 1.18 2.371-.331 1.643-2.117 1.814-2.367 4.152-2.225-.937-2.51-3.819-2.375-7.117-1.24-1.249-2.229.782-2.964 1.78-1.473-.088-.173-2.009 0-2.37-2.44-.146-3.984-.893-6.522-.593-.243-1.43 1.084-1.289.595-2.965-1.49.885-2.082 2.66-2.965 4.148 1.052 2.233 2.645.244 4.742 1.185 2.358 1.063 5.774 4.73 5.03 7.53-.301 1.122-1.581.901-2.651.799-2.13-.203-4.278-1.595-5.098-3.672-1.57 1.279-3.22 2.474-5.32 1.245-2.25-1.316-3.067-3.479-4.521-5.433-.245-.331-3.614-4.272-4.041-3.431.53-1.048 1.43-1.733 1.777-2.966-1.38-1.72-3.195 1.112-5.337.595-.238-.06.061 1.998.183 2.22.296.53.776.842 1.298 1.115 1.189.624 3.106 1.27 3.538 2.733.258.875.053 2.525-.125 3.383-1.342.756-2.764.37-4.119.01-.964-.257-3.216-.354-3.706-1.314-.693-.24-1.062-1.076-1.719-1.241.164 3.543-7.34 3.519-7.338-.501-.618.97-1.716 3.736-2.868 3.992-1.5.332-2.624-1.754-3.586-2.289-.18-1.061-.727-1.622-.531-2.775-2.252 2.119-3.248 5.817-7.118 5.337-1.662-.205-1.53-1.463-3.556-1.777-.833-2.073 1.662-3.797 0-4.745 1.137-1.235 4.738-.001 4.742-2.371-1.616-.299-4.351-1.076-7.114-1.777-.208-.055.028 1.406.111 1.56.215.405.63.58.928.898 1.29 1.39.324 1.848-.159 3.388-1.484.858-2.427 3.44-3.376 4.752-1.2 1.646-2.814 2.064-4.926 1.94-.418-.575-1.087-1.334-1.749-1.598-.101 1.466.28 2.422-1.047 3.138-.93.497-1.973 1.013-2.988 1.152-1.138.16-2.26-.365-3.213-.8-.951-.436-2.058-.672-2.963-1.172-.202.54.232 1.505-.019 1.955-.323.57-1.095.403-1.617.59-.677.237-1.331.685-2.022.943-1.77.663-3.59 1.177-5.424 1.636.413-.48.925-1.626 0-1.78.165-1.222 2.211-.562 2.376-1.778-.477-1.624-1.265-3.119-2.236-4.498-.714-1.016-2.369-2.212-2.774-3.35-.244-.68-.3-1.392-.639-2.06-.302-.6-.57-1.15-.717-1.833-.432-2.032.608-2.274 2.037-3.318 1.451-1.054 2.545-2.287 4.015-3.375 1.398-1.04 2.94-1.94 4.212-3.014 1.956-1.649 3.947-3.445 5.27-5.663.66-1.112.745-2.246 1.21-3.394.45-1.106 1.354-2.114 1.913-3.18-1.322.453-2.562 1.384-3.76 2.089-.703.414-2.496 1.952-3.195 1.947-1.574-.01-3.494.328-3.56-1.184-.606-.072-1.198 2.558-1.776.59-1.425-.233.327 2.7-1.782 1.778-.243-2.615.162-4.581 1.187-5.93 1.906.584 1.443 1.688 2.372-.591 1.65-.269-.466 3.23 1.185 2.966.748-3.209 3.908-3.999 5.337-6.526-.246-2.04-5.17-1.514-3.557-3.555-.183-1.254-2.06.622-1.78 1.78-1.474-.09-.174-2.01 0-2.373-.527.263-1.06.52-1.185 1.186-.825-.34-.319-.994-.075-1.568-.786.043-1.032 1.292-1.399 1.886-.418.684-1.038 1.376-1.23 2.154-.148.608-3.003 1.626-3.587 1.693-1.415.16-2.958-.04-4.415.049-2.798.169-5.596.398-8.27-.657.018-.522.782-.558 1.163-.595-.466-.618-2.046-.961-2.79-1.096-1.037-.191-2.142-.046-3.214-.097-2.118-.099-4.318-.123-6.387-.509-3.688-.696-6.309-2.21-9.447-3.997-1.267-.721-2.218-1.441-3.525-2.165-1.24-.68-2.1-1.592-3.247-2.407-.257-.378-.416-.677-.72-.928-.24-.894-1.003-1.723-1.435-2.532a28.958 28.958 0 0 1-1.368-2.9c-.62-1.57-.996-3.401-1.327-5.052-.148-.75-.26-1.595-.416-2.362-.709-3.456-1.306-6.485-1.11-10.051.187-3.426.715-6.818 1.123-10.22.16-1.318.028-2.388-.053-3.672-.09-1.41.81-2.448 1.175-3.755.347-1.245 1.264-5.91 2.996-2.933.358.613.417 1.42.91 1.956.241.264 1.957 1.185 2.177.544-2.095 6.135-3.005 12.714-2.99 19.185.007 3.315.231 6.684.87 9.941.481 2.441 1.528 4.026 2.614 6.216.867 1.74 1.988 3.116 3.243 4.627 2.07 2.493 5.421 4.11 8.589 5.096 1.55.482 3.262.759 4.894.917 2.023.196 4.009.863 6.03.92a364.1 364.1 0 0 1 7.615.31c2.497.121 4.899.043 7.323-.657.862-.245 1.496-.69 2.109-1.348 1.117-1.197.953-2.231 1.387-3.682.223-.74.483-1.29.608-2.088.324-2.068.632-4.146.825-6.234.19-2.041.288-4.101.128-6.148-.138-1.765-.788-3.353-1.054-5.1-.275-1.78-.116-3.669-.405-5.46-.254-1.577-.91-3.25-1.366-4.838-.48-1.665-.985-3.3-1.621-4.92-.598-1.518-2.073-2.855-2.491-4.329-.711-.464-1.319-1.525-1.807-2.202-.446-.618-1.04-1.938-1.657-2.257-.584-1.283-2.041-1.985-2.813-3.057-.874-.133-1.308-.996-1.993-1.436-.772-.492-1.782-.657-2.654-.913-1.83-.535-3.676-1.036-5.557-1.355a24.708 24.708 0 0 0-5.257-.324c-1.655.082-4.18.08-5.676.833-1.809.909-4.28 2.83-5.929.592 2.595-2.74 6.109-4.56 10.08-5.928h5.438c1.163 0 2.327.02 3.49 0 1.848-.037 2.317.382 3.879 1.41.748.493 1.363.874 2.137 1.31 1.545.872 3.036 1.552 4.5 2.628 2.9 2.124 5.514 4.468 7 7.886.998 2.295 1.877 4.646 2.538 7.064.593 2.185.835 4.391 1.578 6.52.67 1.913 1.259 3.86 1.627 5.857.201 1.098.342 2.21.414 3.323.058.876-.367 3.012.01 3.729.685 1.293.118 3.834 1.78 4.153-.805 3.661-.287 7.017.594 10.671.574-.016.458-.725.591-1.185.55 1.113 2.255 3.655 2.965 1.185 1.352.824.222 4.128.593 5.928 1.68.084.264-2.224 1.185-2.963.158-.125.985.881 1.188.594.445-.639 1.208-1.5 1.184-3.559 1.125 1.163.787 5.894 0 7.116 1.775-1.188 2.5-3.431 3.559-5.337.88.898.956 2.603 1.185 4.149 4.225-3.627 2.102-13.588-.594-17.192-.878.258.237.756 0 1.778-2.943-.516-5.101 1.657-5.929-1.185-.199 1.574-2.202 1.353-2.37 2.962.085-.823-3.918-2.78-4.153-4.207-.23-1.4.798-3.482.977-4.87.543-4.27-1.033-8.487-.715-12.761.957 1.512 1.918 3.048 2.654 4.698-.376-1.713-.607-3.571-1.105-5.076-.872-2.665-1.944-5.733-1.76-8.676.684.301 5.019 4.982 6.878 6.473 1.778 1.425 5.123 3.254 7.304 3.665.955.181 4.756.198 5.336 0 4.251-1.423 3.35-5.298 5.338-9.486-5.11-9.122-13.02-15.442-21.941-20.753-4.754-.407-7.512 1.185-8.894 4.151.313 3.837 2.562 5.739 3.557 8.895-3.305-3.416-6.037-7.402-7.707-12.454-1.385 1.809 1.056 4.849 1.184 7.116-1.257-.776-1.6-2.19-2.612-3.146-.274-.255-.96-.429-1.108-.761-.288-.661.485-.923.463-1.217-.098-1.317-1.209-2.998-1.734-4.228a166.313 166.313 0 0 0-1.981-4.424c-1.361-2.91-2.087-5.738-2.015-9.048.488.38 1.457 2.592 2.237 2.324.693-.238-.148-3.948-.254-4.577-.277-1.641-.636-3.273-.815-4.93-.065-.598-.502-4.068.11-4.383 4.559-2.362 9.53-4.308 13.64-7.118 1.382-.506 2.555 2.075 2.965.594 2.846 2.292 3.3 6.977 5.928 9.487.133 2.66 1.942 4.632 2.965 7.118 1.545 3.748 3.192 7.512 5.507 10.862.975 1.414 2.08 3.087 3.643 3.877 1.586.799 3.311 1.379 5.025 1.84 1.702.459 3.514.673 5.251.95.983.155 1.667.527 2.678.623.88.082 1.843.059 2.777.101 2.103.098 4.031-.192 6.073-.313 2.247-.138 4.122-.226 6.097-1.254 1.536-.802 2.785-1.654 4.215-2.6 1.166-.771 2.266-1 3.31-2.032zm16.499-166.705c-2.714 2.028-2.749 6.737-4.15 10.08-.736-1.587.031-4.798 0-6.523-2.02-.44-.977 2.186-2.372 2.372.001 3.166-1.438 4.886-1.779 7.708-1.389-4.058.684-9.863.592-13.046-1.039.818-1.686 2.3-2.372 3.56-.63 1.162-.78 3.378-2.372 3.556.814-1.954.795-4.74 1.187-7.116-1.33.648-1.041 2.913-2.372 3.56-.489 1.68.306-5.888 0-8.303-2.91 1.438-.858 7.837-2.371 10.673-.798-.119-1.104-2.462-1.186 0-1.787-3.254-2.595-8.258-1.779-12.45 3.94.448 6.8-.455 8.893-.595.957-.062 1.04.662 1.78.595.746-.07 5.092-.237 7.117.592 1.878.768 2.916 3.076 5.335 3.557-1.652 1.51-2.016 4.31-4.744 4.743-.242-1.428 1.08-1.288.593-2.963zM138.676 100.4c.626 3.812 2.088 6.874 2.368 9.487 2.913-.205 5.242-.989 8.897 0 3.793-.554 3.2-5.496 7.114-5.93.15-2.022 1.5-2.848 1.188-5.337 3.036-.285 5.759-1.288 8.3-1.185.813.031 2.27 2.198 4.151.594 1.13 4.022 5.005 7.064 2.963 12.452-1.831-.844-3.674.255-4.743 1.779-4.046-.409-8.654-.196-12.45 0-12.44.639-23.59.3-36.172 1.184-.817-.958-2.096-1.458-1.778-3.557-1.51-.072-2.3-.863-2.371-2.371-.412-4.958 5.353-3.738 4.149-9.487 4.454-1.28 8.635-2.83 14.233-2.965.676 2.487 2.23 4.094 4.151 5.336zm11.857-3.556c-.59 3.281-1.224 6.2-4.742 5.927.892-1.406.176-2.911 2.37-1.777 1.138-4.99 1.204-11.055 2.372-16.012.03 2.409.664 8.175 0 11.862zM139.86 62.45c.04-2.87.958-46.915 2.965-52.18 1.048-1.127.605-2.268 4.152-2.373 3.545-.104 4.742 2.057 4.742 11.267-.875-.31-1.492-.879-2.372-1.187-.967 1.266.645 3.748.595 5.93 2.142.562.826-2.335 1.185-3.558 2.204 3.85.786 26.477.592 32.613-.2 6.415-.53 23.912-.592 28.462-.313.912-.62.037-.593-.593-.179-5.535.376-9.22 0-13.636-3.041 6.837-1.504 18.257-3.557 26.088-1.285.099-.269-2.104-.592-2.965-1.34.44-.235 3.325-.593 4.744-1.28 2.173.22-3.316-1.188-2.964v-4.746c-2.246 1.709-.755 7.152-1.184 10.675-.875 2.256 2.648.115 1.777 2.371-.308.878-.875 1.496-1.183 2.371-1.12-.943-2.035-3.263-2.374-4.742-.302-1.32-.402-3.342-.595-4.744-.436-3.21-.307-7.337-.591-11.859-.207-3.288-.635-15.982-.594-18.974zm-5.356-55.396c-.945 2.509-2.82 26.217-2.82 26.217s-3.836.568-5.062.806c-2.51.485-5.17.684-7.715 1.196-5.192 1.05-10.231 2.4-15.321 3.711-1.634.42-2.672 1.574-3.828.088-.776-.997-.884-2.65-1.24-3.827a77.649 77.649 0 0 0-1.887-5.525c-3.138-8.184-11.166-6.14-15.39-3.758-6.056 3.416-3.629 11.324-3.499 12.868.278 3.257 2.367 10.09 2.367 10.09S61.321 60.533 59.39 62.738c-2.811-1.677-4.245-2.896-6.768-3.795-2.283-.816-5.57-.758-7.875-.013-2.205.715-7.362 7.386-3.964 17.68.873 2.65-2.251 4.824-3.911 7.145-1.78 2.495-13.876 17.155-15.447 17.11-1.481-.038-2.786-.75-4.326-.732-1.394.015-2.545.3-3.732.772-2.09.83-3.574 2.48-4.437 4.642-3.046 7.61 4.205 13.797 5.03 15.628.142.315 1.13 1.927.985 2.275-.003.004-12.663 30.575-14.206 64.546-2.743 60.337 25.941 162.754 25.941 162.754s23.271 72.315 42.542 92.064c26.535 27.19 53.07 39.965 59.951 40.95 4.544.65 4.95 5.459 6.216 9.665.308 2.162 30.728 2.162 34.744.311 1.236-1.083 3.913-11.297 6.861-12.283 2.948-.984 50.079-18.422 69.534-59.4 30.682-64.63 39.567-130.288 39.567-130.288s14.09-69.455 7.856-131.373c-1.5-14.899-12.778-40.295-12.778-40.295s7.141-13.98 2.292-20.78c-1.795-2.523-5.775-3.69-8.98-3.365-1.54.157-6.953 3.442-7.5 3.163-.588-1.67-16.652-18.1-16.759-19.364-.066-.83 1.68-4.69 2.148-6.09.941-2.818 2.67-5.824.718-8.847-1.532-2.382-8.838-7.518-12.314-5.456-2.04.874-3.56 3.663-5.124 3.349-2.263-.453-17.314-9.847-23.21-12.454.217-.82 3.431-16.324 1.543-22.391-1.764-5.673-6.615-6.932-12.397-7.139-7.368 1.426-11.05 13.767-11.228 17.331-4.648-1.727-24.636-3.758-30.03-4.201-.216-4.222.132-8.51-.076-12.733-.31-6.206-.125-13.99-4.537-18.272-2.311-2.242-5.54-2.863-8.8-2.74-11.222.423-12.061 6.005-12.416 6.942zm71.174 24.561h-1.78c1.146 5.661-5.69 28.23-4.15 29.055 2.452-8.836 6.33-19.34 5.93-29.055zM162.392 181.04c-.115 2.485 3.826 3.062 4.744 1.188-2.625.648-2.949-1.006-4.744-1.188zm37.355-68.188c-.212 3.177 1.477 4.451 4.745 4.15-.608-2.356-1.495-4.433-4.745-4.15zM19.49 235.592c.617-.942-.023-.07 0 0zm18.975 109.105c1.322 9.549 4.975 16.77 7.117 25.496 3.817 7.251 5.95 16.184 11.264 21.942-5.59-16.353-12.244-31.636-18.381-47.438zm94.874 116.219c-2.916-3.41-7.634-5.018-13.638-5.337-6.02-2.87-12.28-5.51-18.383-8.298-2.738-2.405-5.088-5.194-8.895-6.524-3.388-3.53-6.558-7.279-10.675-10.082-.54-2.424-2.793-3.132-2.962-5.931-1.986-1.372-3.216-3.502-5.337-4.743-1.22-1.743-2.683-3.247-3.556-5.336-1.057-.694.356-1.378 0-2.37-.697-1.93-3.668-3.624-3.56-6.524-1.164-1.01-2.965-1.385-3.558-2.963-1.722-2.78-3.499-5.433-4.744-7.71-.368-.676-.241-2.643-1.777-2.371 2.882 8.977 6.15 17.569 12.451 23.124 2.249 6.647 6.543 11.244 11.268 15.418 2.885 6.599 8.922 10.05 13.043 15.417 3.17.782 5.064 2.842 7.115 4.744 2.881.617 2.618.856 5.338 1.184 2.275 2.042 5.595 2.763 8.301 4.153 2.824 1.448 5.063 3.392 7.707 4.743 3.9.25 7.649.65 9.489 2.963.36 1.418-.746 4.304.59 4.744.431-1.35.532-3.028 1.189-4.15 1.116 2.395 2.733-.974 4.15-1.778.204-2.179-2.16-1.793-3.556-2.373zm27.866-268.61c-.188-2.363-.031-4.38 1.187-5.335 3.603.311 2.415 5.817-1.187 5.334zm-.591-7.113c-.825 1.742-2.895 2.244-2.966 4.744 1.437 2.32 2.723 4.786 6.523 4.743 3.335-1.167 3.39-5.767 1.78-8.894-1.854-.123-4.355.398-5.337-.593zm97.242-40.322c-.521-1.955 2.904-2.963 1.187-4.15-1.847 2.5-3.86 4.832-4.744 8.3 1.675-.49 1.534.835 2.968.593.956-3.595 5.535-6.707 4.745-10.08-1.622 1.541-1.688 4.64-4.156 5.337zM93.61 231.443c.15 2.222.932 3.812 2.373 4.743-.205-2.168-.06-4.683-2.373-4.743zm49.81 67.597c-.696 2.433 4.121 2.381 4.15.593-1.873.29-2.094-1.07-4.15-.593zm-6.525-32.022c-1.129-.252-1.489-1.275-2.962-1.185-.818.765-.59 2.575-.593 4.15 2.651.481 3.293-1.053 3.555-2.965zm-1.778-4.15c.533-2.035 2.563-2.576 2.371-5.337-.855-1.119-1.322-2.626-3.555-2.372-.002-.996-3.23-3.028-1.781-1.776 1.433 1.528 2.123 3.807 3.56 5.336-.221 1.023-1.794 3.664-.595 4.15zm-7.114 65.226c.757-1.056 1.143-5.534 0-6.524-.203 2.568-2.887 2.65-2.373 5.932 1.122-.133 1.308.67 2.373.592zm-.594 2.37c-.594-.787-.56-2.205-1.779-2.37-.15 3.311.314 6.012 3.56 5.931 1.302-1.378-.821-2.663-1.78-3.56zm61.666-103.174c-2.578 1.87-7.113.357-9.486 1.188 1.704 3.244 9.106 3.209 9.486-1.188zm-4.742-7.705h1.777c1.314 1.888.328 5.585-2.963 4.742-.501-2.477 1.15-2.8 1.186-4.742zm5.335 2.369c-1.8-6.12-11.35-4.769-8.891 2.968 2.843 2.33 9.022 1.225 8.891-2.968zm8.304 11.861c.01-1.772 1.54-2.017 1.776-3.556-.757-.034-.82-.764-1.776-.595-1.051 1.913-1.78 4.151-2.372 6.522 2.02.44.979-2.183 2.372-2.371zm-46.845 37.354c-.892-1.664-2.495 1.505-2.965 0-.377-1.993.764-5.506-.593-6.519-.675 2.485-1.203 5.119-1.777 7.705-.76-.034-.824-.76-1.778-.593.095 1.679 1.085 2.47 1.183 4.153-1.4 4.398-.204 10.515 1.188 12.451.883-5.11 2.475-8.226 2.372-13.046 1.213-.956 1.493-2.854 2.37-4.151zm-2.965 21.94c-4.842-2.805-6.368 4.29-.593 3.558-.012-1.395 1.022-1.746.593-3.557zm-5.929-44.472c1.876.099 1.983-1.577 4.152-1.186-.513 1.53.948 3.099 1.184 4.743.275 1.906-1.138 4.257.593 4.744.243-4.7-.805-10.688 2.965-11.855-4.968.824-8.765.033-13.639-.594-.25 3.213 3.746 2.185 4.745 4.148zm-11.266 24.312c-.293 3.261-5.116 2-6.52 4.151 1.389.186 2.223.936 4.148.592.13-.463.498-.69 1.186-.592-.066-1.439 3.874-3.888 1.186-4.151zm24.312-6.525v3.56c1.759-.217 2.924-1.028 3.556-2.371-1.237-.344-1.691-1.47-3.556-1.19zm.593-5.928c.498-.687.78-1.588.592-2.965.758-.036.8-.772 1.185-1.187.975-1.04 4.21-4.642 2.966-3.556-1.952 1.7-8.015 4.63-4.743 7.708zm5.334 16.604c3.08.71 3.232-1.517 4.747-2.37-3.575 1.123-4.605-2.529-6.525-1.187-.226 2.006 2.624.932 1.778 3.557zm72.34 1.78c2.109-.923.361 2.01 1.782 1.778-.32 4.819-2.067 8.214-4.15 11.265-1.426-4.197.111-10.55 2.368-13.043zm-37.292 25.521c4.06 2.538 10.356 2.6 14.902 1.445 8.108-2.073 18.25-5.88 22.78-13.474 1.039-1.742 2.052-3.5 3.172-5.192.502-4.148.94-6.867 1.775-8.3-.005-1.436.072-2.873.03-4.31-.039-1.264.268-2.374.346-3.625.062-.93.059-1.928 0-2.86-.1-1.702-.93-3.383-1.355-5.019-.826-3.184-1.94-6.829-4.4-9.14-3.224-3.024-7.43-4.742-11.843-4.974-4.063-.216-8.251-.153-12.213.874-1.54.398-2.983.65-4.391 1.47-2.278 1.318-8.885 9.491-10.052 11.74-2.837 5.44-3.919 10.946-4.15 17.028-.024.63.28 1.506.593.594v-2.372c0-.772.503-1.65.68-2.398.165-.663.16-1.395.387-2.038.184-.516.632-.964.743-1.524.835-.75 1.241-2.064 1.862-2.977a64.837 64.837 0 0 0 2.139-3.325c.65-1.074 1.254-1.93 2.263-2.697 1.728-1.321 3.523-3.157 5.548-3.973.006.038.01.08.01.118l1.651-.547c-.298.6-1.149 1.146-1.68 1.627-.028.028-.053.064-.086.09-.054.349-.25.765-.43 1.01 1.218-.387 2.008-1.436 2.861-2.316.42-.424.84-.854 1.352-1.172.26-.165 1.588-.48 1.673-.633-.804 1.393-3.87 3.61-2.367 5.337.964-1.599 2.316-2.82 4.149-3.555 1.775 1.183 1.579 4.35 4.15 4.743 3.087-2.05 3.324-6.955 7.113-8.302 5.8.129 8.816 3.046 11.267 6.522-.718 2.383 1.569 4.338-.593 4.742v-2.368c-2.224-.45-1.293 2.262-2.963 2.368-.018-2.651-1.743 1.299-4.15 0 .102 1.488-.912 1.859-1.781 2.375-2.582-3.57-5.703 3.393-8.892 1.185-1.116 1.031.81 2.284-1.187 1.184-1.713-.265-1.4-2.55-2.964-2.963-.353 1.228.734 3.896-.593 4.15-1.491-.919-1.989-2.404-4.151-1.187-.863 2.312 2.172 6.298 2.371 10.081.14 2.683.182 5.414-1.776 7.118.28-2.805-.744-1.106-1.78-.595-.695-.887-.74-2.426-1.781-2.965-.753 1.484.304 1.856-.595 2.372-1.394-.579-.53-3.421-1.775-4.15-.062 1.517-.338 2.829-1.187 3.557-.324-.861.695-3.065-.594-2.963-1.037 1.333-.303 4.44-1.78 5.337-.324-.865.695-3.068-.59-2.968-.752 1.953-.786 5.277-1.187 5.93-1.91-.66-.462-4.675-2.374-5.336-.857 3.09-.447 7.457-2.368 9.487-.44-1.714.25-11.286-1.853-11.563-.463 3.48-.188 7.548.38 11.007.632 3.855 2.408 6.246 5.684 8.29zm-35.64 16.211c.241-3.122 2.361-4.361 2.373-7.711-1.865-.283-2.318.845-3.56 1.189.424 2.146.226 4.914 1.188 6.522zm6.523 12.226c1.12.133 1.307-.67 2.372-.593-.489-1.489 1.153-5.104-1.185-4.743-.15 1.983-2.97 3.255-1.187 5.336zm-13.366-19.116c1.87 2.266 3.314 3.511 3.878 6.664.384 2.139.832 9.653 3.373 11.612.848.653 1.928.685 3.316-.3 4.41-3.14 2-7.475 1.364-11.464-.39-2.432-.573-3.462-2.273-5.341-.035-.527-.343-.86-.483-1.38-.157-.093-.374-.015-.55-.06-1.284-3.212-6.037-3.068-8.896-3.74-2.466-.076-.46 3.12.27 4.01zm-6.202 61.808c.8.188 1.131.843 2.373.594-.416-1.825-.416-1.14 0-2.964-1.859-.28-1.673 1.49-2.373 2.37zm62.852-189.152c.273-1.709 2.101-1.856 1.782-4.15-1.933-.316-2.935 3.337-1.782 4.15zM153.4 336.94c-.951-.148-2.533-.786-2.951-1.63-.23-.469-.005-1.145-.23-1.634-.028-.057-.821-1.147-.873-.838-.43 2.476-1.618 3.215-3.97 3.814-1.145.294-2.345.524-3.493.839 1.086 1.372 6.262.597 7.999.597 1.006 0 7.183.773 6.695-.905-.768-.566-2.222-.096-3.176-.243zm52.13-139.37c.554.096 1.008-.728 1.383-1.736-.4.65-.84 1.266-1.384 1.736zm-60.334 114.514c.331-1.593-2.61-2.068-3.514-2.058-2.104.022-3.912 1.23-5.727 2.18-2.11 1.1-2.216 2.014-2.414 4.37-.208 2.5-.84 4.955-1.712 7.299-.436 1.165-2.438 4.65-1.456 5.998 1.58 2.173 3.839 3.67 7.114 4.152 1.01-4.95 1.252-11.758 2.966-17.198.746-.24 1.212-.762 1.186-1.778.839-1.333 3.183-1.166 3.557-2.965zm29.65-8.3c.907-1-.082-3.29.592-4.151 2.237 2.245 1.25-1.76 2.373-2.374.103 1.873.413 3.538 2.37 3.557 1.666.256-1.485-2.21.595-2.368.699.88.511 2.648 2.37 2.368-.53-1.91 1.933-.83 2.372-1.776-.002 1.434 2.074 3.789 2.961 2.37-1.602-3.136-.477-9.004-2.37-11.856-2.453.024-4.724-1.622-5.333.59-3.687-1.291-5.092 3.706-10.674 2.372.188 1.375-.098 2.28-.594 2.965 3.002 1.546.935 8.158 5.338 8.303zm1.776 29.054c-.034 1.943-1.686 2.267-1.184 4.744 2.373.754 2.265-4.005 1.184-4.744zm27.793-72.822c-.531.051-1.414 1.621-1.705 2.042-.603.868-1.09 1.965-1.216 3.028 1 .017 1.776-2.145 1.955-2.954.53-.343 1.003-.994 1.515-1.49.058-.37-.054-.671-.55-.626zm-.518 142.198c-1.41-1.283-4.863 2.792-3.556 4.151 1.149-1.423 3.329-1.81 3.556-4.15zM111.94 275.376c.232 1.063.508 2.08.971 2.886-.203-1.018-.56-1.963-.97-2.886zm37.405-221.23c-.218 3.37-.601 6.366.595 9.49.791-.736.592-2.897.592-4.745 0-1.935.77-4.957-1.187-4.745zm-22.532 51.59c.108-.019-.184-.608-.594-.593-.034 0-1.013 1.145-1.183 1.187-3.07.716-4.147.68-3.56 4.743 4.198.242 7.745-.164 10.674-1.187 1.814.869 3.088.16 4.743-.593.741-5.041-6.261-4.177-10.08-3.556zm22.532-52.773c1.888.514 1.006-1.82 1.187-2.966.446-2.849.45-5.075 0-7.115 1.01-1.561.058-5.08 1.185-6.522-2.656-1.535-.57-6.829 0-8.894-.757-.033-.82-.76-1.777-.594.132 1.122-.67 1.31-.595 2.372-.258 2.038.234 3.323.595 4.745-2.393 3.906.96 8.086-1.185 13.639.33 2.157 1.435 3.54.59 5.335zm16.011 56.923c1.64-1.129 5.81.275 6.522-1.778-.518-5.375-9.156-3.178-13.636-2.965-.987 1.385-3.311 1.433-2.965 4.15 2.31 1.247 6.817.299 10.08.593zm4.745-8.299c-.15-3.982-5.811-1.657-7.71-.594 3.123-.357 5.095.44 7.71.594zm-35.577-4.153c-2.659-2.398-8.468.022-10.674 1.778 3.436-.039 4.311-.342 6.522-.593 1.33 1.261 3.905.425 4.152-1.185zm-20.16 243.705c-2.037.454-3.339 1.64-2.374 3.558 2.05-.482 2.503 1.107 3.557 0 .636-2.215-1.471-1.69-1.184-3.558zm85.382 70.563c2.34-4.58 6.791-7.046 8.893-11.862-1.452-.873-2.416.605-2.963 1.188-.404.433-.188 1.322-.592 1.78-1.49 1.685-2.716 3.154-4.15 4.15.44 2.06-3.132 3.137-1.188 4.744zm-92.5-185.003c-2.442.158-2.086-4.595-1.185-5.931 2.387-.16 4.823 5.525 1.185 5.93zm.593-7.708c-2.615.149-3.33 2.202-5.337 2.963-.183 2.162.097 3.86.594 5.336 3.643 2.52 9.048.59 9.487-3.556-1.696-1.467-1.679-4.644-4.744-4.743zm12.452 88.943c.111 3.285-4.89 4.574-2.965 7.707.01-.778 1.646-.754 1.78 0-.33 0-.674.482 0 .594 1.569-2.582 3.311-4.99 4.744-7.708-.701-.685-2.097-.67-3.56-.593zm-4.15 35.58c1.428-.246 1.288 1.08 2.966.59-.56-2.401-.268-2.73 1.184-4.151-.939-1.83-1.677-3.857-2.372-5.928-.266 3.487-1.953 5.555-1.777 9.488zm-4.746 2.367c-.086-2.875-2.607-3.32-2.962-5.928-.215 3.178-.02 5.948 2.962 5.928z" fill="#1A1918"/></g></svg>