<svg xmlns="http://www.w3.org/2000/svg" viewBox="0 0 589.7 589.7">
  <path fill="#9FA628" stroke-width="5" d="M563.7 227.2c-5.2 0-11.6.6-19.6 1.8-4.6.8-7.3 0-7.6-.4-.3-.4-.5-1.6-.5-3 14-11.5 20.6-24 18.9-35.5-1.1-7.4-6.3-17.6-24.5-24.3-3.5-1.3-7.1-2-10.6-2-26 0-37.2 34.2-40.4 46.5A221.3 221.3 0 0 1 420 237v-52.4c0-64.8-46.4-117.8-104-119.3l-11-23a9.6 9.6 0 0 0-17.1-.4l-15.2 28.5c-56.3 4.1-101.3 54.2-101.3 114.2v34.8c-50.4 10.2-85 34.9-98.3 45.8a45.7 45.7 0 0 0-60.2 7.2C6 279.4-.4 290.2 0 298.6c.4 7.5 4.4 20 26.6 20 5.2 0 11.7-.5 19.7-1.8 4.6-.7 7.3.2 7.4.4.4.4.5 1.6.5 3C40 331.7 33.4 344.3 35 355.7c1.1 7.4 6.3 17.6 24.4 24.3 3.6 1.3 7.1 2 10.6 2 26 0 37.1-34.3 40.3-46.6a221.1 221.1 0 0 1 61-27V399c0 2.5.9 4.8 2.5 6.6 1.1 1.1 10.6 10.5 35.7 18.6v81a21.3 21.3 0 0 0-19.2 21.2v9.8c0 9.2 7.5 16.6 16.6 16.6h76.8c3.6 0 7-1 10-2.6 2.6 1.6 5.6 2.6 8.8 2.6h76.8c11.8 0 21.4-9.6 21.4-21.3v-5.1c0-11-8.4-20-19.2-21.2v-81c25.2-8 34.6-17.4 35.7-18.6a9.6 9.6 0 0 0 2.6-6.6v-72.9a225.5 225.5 0 0 0 96.9-45.5 49 49 0 0 0 26.4 8.3c12.3 0 24.3-5.5 33.8-15.6 6.6-7 13.1-17.7 12.7-26.1-.4-9.2-5.3-20.1-26-20.1zM291 103.2c49.5 0 96 48.8 96 86.5 0 33.9-34.4 53.3-94.4 53.3s-94.5-19.5-94.5-53.7c0-38 43.8-86 93-86zm-7.3 411.5c1.9 0 3.6.5 5.1 1.3l-.8 1.4a16.5 16.5 0 0 0-9-2.7h4.7zm11.8-6c-2.8-1.9-6-3-9.6-3.4V436.2h19.2v69.1c-3.5.4-6.8 1.5-9.6 3.4zm95.6 17.8v4.7c0-9.1-7.4-16.5-16.5-16.5h4.7c6.6 0 11.9 5.3 11.9 11.8z"/>
  <path fill="#fff" fill-opacity="0.5" d="M219 197.7c4.7 0 8.6-4 8.6-8.7 0-20.4 27.7-56.7 55-56.7a8.7 8.7 0 0 0 0-17.4c-36 0-72.4 43-72.4 74 0 4.9 3.9 8.8 8.7 8.8z"/>
</svg>
