<svg width="800" height="500" xmlns="http://www.w3.org/2000/svg" viewBox="0 0 800 500"><defs id="defs"></defs><rect x="0" y="0" width="800" height="500" stroke="none" stroke-width="0" fill="#ffffff"></rect><g><rect x="481" y="96" width="166" height="129" stroke="none" stroke-width="0" fill-opacity="0" fill="#ffffff"></rect><g column-id="Backend"><rect x="481" y="96" width="166" height="14" stroke="none" stroke-width="0" fill-opacity="0" fill="#ffffff"></rect><g><text text-anchor="start" x="500" y="107.9" font-family="Arial" font-size="14" stroke="none" stroke-width="0" fill="#222222">Backend</text></g><circle cx="488" cy="103" r="7" stroke="none" stroke-width="0" fill="#3366cc"></circle></g><g column-id="Frontend"><rect x="481" y="119" width="166" height="14" stroke="none" stroke-width="0" fill-opacity="0" fill="#ffffff"></rect><g><text text-anchor="start" x="500" y="130.9" font-family="Arial" font-size="14" stroke="none" stroke-width="0" fill="#222222">Frontend</text></g><circle cx="488" cy="126" r="7" stroke="none" stroke-width="0" fill="#dc3912"></circle></g><g column-id="Manager"><rect x="481" y="142" width="166" height="14" stroke="none" stroke-width="0" fill-opacity="0" fill="#ffffff"></rect><g><text text-anchor="start" x="500" y="153.9" font-family="Arial" font-size="14" stroke="none" stroke-width="0" fill="#222222">Manager</text></g><circle cx="488" cy="149" r="7" stroke="none" stroke-width="0" fill="#ff9900"></circle></g><g column-id="Designer"><rect x="481" y="165" width="166" height="14" stroke="none" stroke-width="0" fill-opacity="0" fill="#ffffff"></rect><g><text text-anchor="start" x="500" y="176.9" font-family="Arial" font-size="14" stroke="none" stroke-width="0" fill="#222222">Designer</text></g><circle cx="488" cy="172" r="7" stroke="none" stroke-width="0" fill="#109618"></circle></g><g column-id="DS"><rect x="481" y="188" width="166" height="14" stroke="none" stroke-width="0" fill-opacity="0" fill="#ffffff"></rect><g><text text-anchor="start" x="500" y="199.9" font-family="Arial" font-size="14" stroke="none" stroke-width="0" fill="#222222">DS</text></g><circle cx="488" cy="195" r="7" stroke="none" stroke-width="0" fill="#990099"></circle></g><g column-id="Writer"><rect x="481" y="211" width="166" height="14" stroke="none" stroke-width="0" fill-opacity="0" fill="#ffffff"></rect><g><text text-anchor="start" x="500" y="222.9" font-family="Arial" font-size="14" stroke="none" stroke-width="0" fill="#222222">Writer</text></g><circle cx="488" cy="218" r="7" stroke="none" stroke-width="0" fill="#0099c6"></circle></g></g><g><path d="M306,251L272.1768180386403,102.81095734836279A152,152,0,0,1,306,99L306,251A0,0,0,0,0,306,251" stroke="#ffffff" stroke-width="1" fill="#0099c6"></path></g><g><path d="M306,251L240.04967165413115,114.05273207883232A152,152,0,0,1,272.1768180386403,102.81095734836279L306,251A0,0,0,0,0,306,251" stroke="#ffffff" stroke-width="1" fill="#990099"></path></g><g><path d="M306,251L187.16161466485946,156.2295501174725A152,152,0,0,1,240.04967165413115,114.05273207883232L306,251A0,0,0,0,0,306,251" stroke="#ffffff" stroke-width="1" fill="#109618"></path><text text-anchor="start" x="213.7404794751631" y="160.27358589267968" font-family="Arial" font-size="14" stroke="none" stroke-width="0" fill="#ffffff">7.1%</text></g><g><path d="M306,251L154,251.00000000000003A152,152,0,0,1,187.16161466485946,156.2295501174725L306,251A0,0,0,0,0,306,251" stroke="#ffffff" stroke-width="1" fill="#ff9900"></path><text text-anchor="start" x="175.74462955740867" y="217.3199772832076" font-family="Arial" font-size="14" stroke="none" stroke-width="0" fill="#ffffff">10.7%</text></g><g><path d="M306,251L272.17681803864025,399.1890426516372A152,152,0,0,1,154,251.00000000000003L306,251A0,0,0,0,0,306,251" stroke="#ffffff" stroke-width="1" fill="#dc3912"></path><text text-anchor="start" x="193.88348519870877" y="329.36046923062185" font-family="Arial" font-size="14" stroke="none" stroke-width="0" fill="#ffffff">21.4%</text></g><g><path d="M306,251L306,99A152,152,0,1,1,272.17681803864025,399.1890426516372L306,251A0,0,0,1,0,306,251" stroke="#ffffff" stroke-width="1" fill="#3366cc"></path><text text-anchor="start" x="402.5240601288373" y="269.02910842381334" font-family="Arial" font-size="14" stroke="none" stroke-width="0" fill="#ffffff">53.6%</text></g><g></g></svg>
