<svg width="800" height="500" xmlns="http://www.w3.org/2000/svg" viewBox="0 0 800 500"><defs id="defs"><filter id="_ABSTRACT_RENDERER_ID_2"><feGaussianBlur in="SourceAlpha" stdDeviation="2"></feGaussianBlur><feOffset dx="1" dy="1"></feOffset><feComponentTransfer><feFuncA type="linear" slope="0.1"></feFuncA></feComponentTransfer><feMerge><feMergeNode></feMergeNode><feMergeNode in="SourceGraphic"></feMergeNode></feMerge></filter></defs><rect x="0" y="0" width="800" height="500" stroke="none" stroke-width="0" fill="#ffffff"></rect><g><rect x="481" y="96" width="166" height="175" stroke="none" stroke-width="0" fill-opacity="0" fill="#ffffff"></rect><g column-id="eBay Mag"><rect x="481" y="96" width="166" height="14" stroke="none" stroke-width="0" fill-opacity="0" fill="#ffffff"></rect><g><text text-anchor="start" x="500" y="107.9" font-family="Arial" font-size="14" stroke="none" stroke-width="0" fill="#222222">eBay Mag</text></g><circle cx="488" cy="103" r="7" stroke="none" stroke-width="0" fill="#3366cc"></circle></g><g column-id="Fountain"><rect x="481" y="119" width="166" height="14" stroke="none" stroke-width="0" fill-opacity="0" fill="#ffffff"></rect><g><text text-anchor="start" x="500" y="130.9" font-family="Arial" font-size="14" stroke="none" stroke-width="0" fill="#222222">Fountain</text></g><circle cx="488" cy="126" r="7" stroke="none" stroke-width="0" fill="#dc3912"></circle></g><g column-id="Mobius"><rect x="481" y="142" width="166" height="14" stroke="none" stroke-width="0" fill-opacity="0" fill="#ffffff"></rect><g><text text-anchor="start" x="500" y="153.9" font-family="Arial" font-size="14" stroke="none" stroke-width="0" fill="#222222">Mobius</text></g><circle cx="488" cy="149" r="7" stroke="none" stroke-width="0" fill="#ff9900"></circle></g><g column-id="Amplifr"><rect x="481" y="165" width="166" height="14" stroke="none" stroke-width="0" fill-opacity="0" fill="#ffffff"></rect><g><text text-anchor="start" x="500" y="176.9" font-family="Arial" font-size="14" stroke="none" stroke-width="0" fill="#222222">Amplifr</text></g><circle cx="488" cy="172" r="7" stroke="none" stroke-width="0" fill="#109618"></circle></g><g column-id="eBay Social"><rect x="481" y="188" width="166" height="14" stroke="none" stroke-width="0" fill-opacity="0" fill="#ffffff"></rect><g><text text-anchor="start" x="500" y="199.9" font-family="Arial" font-size="14" stroke="none" stroke-width="0" fill="#222222">eBay Social</text></g><circle cx="488" cy="195" r="7" stroke="none" stroke-width="0" fill="#990099"></circle></g><g column-id="StyleCounsel"><rect x="481" y="211" width="166" height="14" stroke="none" stroke-width="0" fill-opacity="0" fill="#ffffff"></rect><g><text text-anchor="start" x="500" y="222.9" font-family="Arial" font-size="14" stroke="none" stroke-width="0" fill="#222222">StyleCounsel</text></g><circle cx="488" cy="218" r="7" stroke="none" stroke-width="0" fill="#0099c6"></circle></g><g column-id="Osome"><rect x="481" y="234" width="166" height="14" stroke="none" stroke-width="0" fill-opacity="0" fill="#ffffff"></rect><g><text text-anchor="start" x="500" y="245.9" font-family="Arial" font-size="14" stroke="none" stroke-width="0" fill="#222222">Osome</text></g><circle cx="488" cy="241" r="7" stroke="none" stroke-width="0" fill="#dd4477"></circle></g><g column-id="Common"><rect x="481" y="257" width="166" height="14" stroke="none" stroke-width="0" fill-opacity="0" fill="#ffffff"></rect><g><text text-anchor="start" x="500" y="268.9" font-family="Arial" font-size="14" stroke="none" stroke-width="0" fill="#222222">Common</text></g><circle cx="488" cy="264" r="7" stroke="none" stroke-width="0" fill="#66aa00"></circle></g></g><g><path d="M306,190.2L306,99A152,152,0,0,1,453.9625842628253,216.19951640757964L365.18503370513014,237.07980656303184A60.800000000000004,60.800000000000004,0,0,0,306,190.2" stroke="#ffffff" stroke-width="1" fill="#3366cc"></path><text text-anchor="start" x="360.2782080563678" y="162.12490642187313" font-family="Arial" font-size="14" stroke="none" stroke-width="0" fill="#ffffff">21.3%</text></g><g><path d="M365.18503370513014,237.07980656303184L453.9625842628253,216.19951640757964A152,152,0,0,1,391.90073499223394,376.39961613894195L340.3602939968936,301.15984645557677A60.800000000000004,60.800000000000004,0,0,0,365.18503370513014,237.07980656303184" stroke="#ffffff" stroke-width="1" fill="#dc3912"></path><text text-anchor="start" x="394.93149991934786" y="298.10028789089756" font-family="Arial" font-size="14" stroke="none" stroke-width="0" fill="#ffffff">19.1%</text></g><g><path d="M284.0365066958211,194.30568845221518L251.09126673955274,109.26422113053792A152,152,0,0,1,306,99L306,190.2A60.800000000000004,60.800000000000004,0,0,0,284.0365066958211,194.30568845221518" stroke="#ffffff" stroke-width="1" fill="#66aa00"></path><text text-anchor="start" x="266.58636202831866" y="130.64809966644248" font-family="Arial" font-size="14" stroke="none" stroke-width="0" fill="#ffffff">5.9%</text></g><g><path d="M263.0079077038579,208.0079077038579L198.51976925964476,143.5197692596448A152,152,0,0,1,251.09126673955274,109.26422113053792L284.0365066958211,194.30568845221518A60.800000000000004,60.800000000000004,0,0,0,263.0079077038579,208.0079077038579" stroke="#ffffff" stroke-width="1" fill="#dd4477"></path><text text-anchor="start" x="222.813976388922" y="152.79057499116087" font-family="Arial" font-size="14" stroke="none" stroke-width="0" fill="#ffffff">6.6%</text></g><g><path d="M246.23523553921876,239.82802931675255L156.5880888480469,223.0700732918814A152,152,0,0,1,198.51976925964476,143.5197692596448L263.0079077038579,208.0079077038579A60.800000000000004,60.800000000000004,0,0,0,246.23523553921876,239.82802931675255" stroke="#ffffff" stroke-width="1" fill="#0099c6"></path><text text-anchor="start" x="183.33495695127456" y="199.6758968916574" font-family="Arial" font-size="14" stroke="none" stroke-width="0" fill="#ffffff">9.6%</text></g><g><path d="M250.38053279592833,275.55839709621125L166.95133198982083,312.3959927405281A152,152,0,0,1,156.5880888480469,223.0700732918814L246.23523553921876,239.82802931675255A60.800000000000004,60.800000000000004,0,0,0,250.38053279592833,275.55839709621125" stroke="#ffffff" stroke-width="1" fill="#990099"></path><text text-anchor="start" x="169.60227298184157" y="269.8680724979652" font-family="Arial" font-size="14" stroke="none" stroke-width="0" fill="#ffffff">9.6%</text></g><g><path d="M281.4416029037888,306.61946720407167L244.604007259472,390.0486680101792A152,152,0,0,1,166.95133198982083,312.3959927405281L250.38053279592833,275.55839709621125A60.800000000000004,60.800000000000004,0,0,0,281.4416029037888,306.61946720407167" stroke="#ffffff" stroke-width="1" fill="#109618"></path><text text-anchor="start" x="202.36962466697923" y="340.03037533302074" font-family="Arial" font-size="14" stroke="none" stroke-width="0" fill="#ffffff">11.8%</text></g><g><path d="M340.3602939968936,301.15984645557677L391.90073499223394,376.39961613894195A152,152,0,0,1,244.604007259472,390.0486680101792L281.4416029037888,306.61946720407167A60.800000000000004,60.800000000000004,0,0,0,340.3602939968936,301.15984645557677" stroke="#ffffff" stroke-width="1" fill="#ff9900"></path><text text-anchor="start" x="297.79490704434204" y="383.18731841109064" font-family="Arial" font-size="14" stroke="none" stroke-width="0" fill="#ffffff">16.2%</text></g><g></g></svg>
