<svg width="800" height="500" xmlns="http://www.w3.org/2000/svg" viewBox="0 0 800 500"><defs id="defs"></defs><rect x="0" y="0" width="800" height="500" stroke="none" stroke-width="0" fill="#ffffff"></rect><g><rect x="481" y="96" width="166" height="152" stroke="none" stroke-width="0" fill-opacity="0" fill="#ffffff"></rect><g column-id="eBay Mag"><rect x="481" y="96" width="166" height="14" stroke="none" stroke-width="0" fill-opacity="0" fill="#ffffff"></rect><g><text text-anchor="start" x="500" y="107.9" font-family="Arial" font-size="14" stroke="none" stroke-width="0" fill="#222222">eBay Mag</text></g><circle cx="488" cy="103" r="7" stroke="none" stroke-width="0" fill="#3366cc"></circle></g><g column-id="Fountain"><rect x="481" y="119" width="166" height="14" stroke="none" stroke-width="0" fill-opacity="0" fill="#ffffff"></rect><g><text text-anchor="start" x="500" y="130.9" font-family="Arial" font-size="14" stroke="none" stroke-width="0" fill="#222222">Fountain</text></g><circle cx="488" cy="126" r="7" stroke="none" stroke-width="0" fill="#dc3912"></circle></g><g column-id="Mobius"><rect x="481" y="142" width="166" height="14" stroke="none" stroke-width="0" fill-opacity="0" fill="#ffffff"></rect><g><text text-anchor="start" x="500" y="153.9" font-family="Arial" font-size="14" stroke="none" stroke-width="0" fill="#222222">Mobius</text></g><circle cx="488" cy="149" r="7" stroke="none" stroke-width="0" fill="#ff9900"></circle></g><g column-id="eBay Social"><rect x="481" y="165" width="166" height="14" stroke="none" stroke-width="0" fill-opacity="0" fill="#ffffff"></rect><g><text text-anchor="start" x="500" y="176.9" font-family="Arial" font-size="14" stroke="none" stroke-width="0" fill="#222222">eBay Social</text></g><circle cx="488" cy="172" r="7" stroke="none" stroke-width="0" fill="#109618"></circle></g><g column-id="StyleCounsel"><rect x="481" y="188" width="166" height="14" stroke="none" stroke-width="0" fill-opacity="0" fill="#ffffff"></rect><g><text text-anchor="start" x="500" y="199.9" font-family="Arial" font-size="14" stroke="none" stroke-width="0" fill="#222222">StyleCounsel</text></g><circle cx="488" cy="195" r="7" stroke="none" stroke-width="0" fill="#990099"></circle></g><g column-id="Osome"><rect x="481" y="211" width="166" height="14" stroke="none" stroke-width="0" fill-opacity="0" fill="#ffffff"></rect><g><text text-anchor="start" x="500" y="222.9" font-family="Arial" font-size="14" stroke="none" stroke-width="0" fill="#222222">Osome</text></g><circle cx="488" cy="218" r="7" stroke="none" stroke-width="0" fill="#0099c6"></circle></g><g column-id="Amplifr"><rect x="481" y="234" width="166" height="14" stroke="none" stroke-width="0" fill-opacity="0" fill="#ffffff"></rect><g><text text-anchor="start" x="500" y="245.9" font-family="Arial" font-size="14" stroke="none" stroke-width="0" fill="#222222">Amplifr</text></g><circle cx="488" cy="241" r="7" stroke="none" stroke-width="0" fill="#dd4477"></circle></g></g><g><path d="M306,190.2L306,99A152,152,0,0,1,456.8203594032261,232.09975689358222L366.32814376129045,243.4399027574329A60.800000000000004,60.800000000000004,0,0,0,306,190.2" stroke="#ffffff" stroke-width="1" fill="#3366cc"></path><text text-anchor="start" x="373.62770646475934" y="163.40456414342503" font-family="Arial" font-size="14" stroke="none" stroke-width="0" fill="#ffffff">23%</text></g><g><path d="M366.32814376129045,243.4399027574329L456.8203594032261,232.09975689358222A152,152,0,0,1,365.0420890337536,391.064384204302L329.61683561350145,307.0257536817208A60.800000000000004,60.800000000000004,0,0,0,366.32814376129045,243.4399027574329" stroke="#ffffff" stroke-width="1" fill="#dc3912"></path><text text-anchor="start" x="387.4317511978006" y="314.46164885842524" font-family="Arial" font-size="14" stroke="none" stroke-width="0" fill="#ffffff">20.6%</text></g><g><path d="M276.9221580998238,197.60412833909015L233.30539524955947,117.51032084772535A152,152,0,0,1,306,99L306,190.2A60.800000000000004,60.800000000000004,0,0,0,276.9221580998238,197.60412833909015" stroke="#ffffff" stroke-width="1" fill="#dd4477"></path><text text-anchor="start" x="258.765739083239" y="133.2353379071717" font-family="Arial" font-size="14" stroke="none" stroke-width="0" fill="#ffffff">7.9%</text></g><g><path d="M250.58044417945027,225.99374412965884L167.45111044862566,188.48436032414708A152,152,0,0,1,233.30539524955947,117.51032084772535L276.9221580998238,197.60412833909015A60.800000000000004,60.800000000000004,0,0,0,250.58044417945027,225.99374412965884" stroke="#ffffff" stroke-width="1" fill="#0099c6"></path><text text-anchor="start" x="199.26717275655847" y="175.42369698814622" font-family="Arial" font-size="14" stroke="none" stroke-width="0" fill="#ffffff">10.3%</text></g><g><path d="M246.7243829393451,264.52927278454393L157.81095734836282,284.8231819613598A152,152,0,0,1,167.45111044862566,188.48436032414708L250.58044417945027,225.99374412965884A60.800000000000004,60.800000000000004,0,0,0,246.7243829393451,264.52927278454393" stroke="#ffffff" stroke-width="1" fill="#990099"></path><text text-anchor="start" x="169.2702079773145" y="244.21942256157027" font-family="Arial" font-size="14" stroke="none" stroke-width="0" fill="#ffffff">10.3%</text></g><g><path d="M266.91851333105836,297.5755021416339L208.29628332764597,367.4387553540846A152,152,0,0,1,157.81095734836282,284.8231819613598L246.7243829393451,264.52927278454393A60.800000000000004,60.800000000000004,0,0,0,266.91851333105836,297.5755021416339" stroke="#ffffff" stroke-width="1" fill="#109618"></path><text text-anchor="start" x="185.98391037331436" y="317.01856010456584" font-family="Arial" font-size="14" stroke="none" stroke-width="0" fill="#ffffff">10.3%</text></g><g><path d="M329.61683561350145,307.0257536817208L365.0420890337536,391.064384204302A152,152,0,0,1,208.29628332764597,367.4387553540846L266.91851333105836,297.5755021416339A60.800000000000004,60.800000000000004,0,0,0,329.61683561350145,307.0257536817208" stroke="#ffffff" stroke-width="1" fill="#ff9900"></path><text text-anchor="start" x="267.0984725377325" y="381.30344089600715" font-family="Arial" font-size="14" stroke="none" stroke-width="0" fill="#ffffff">17.5%</text></g><g></g></svg>
