<svg width="800" height="500" xmlns="http://www.w3.org/2000/svg" viewBox="0 0 800 500"><defs id="defs"><filter id="_ABSTRACT_RENDERER_ID_2"><feGaussianBlur in="SourceAlpha" stdDeviation="2"></feGaussianBlur><feOffset dx="1" dy="1"></feOffset><feComponentTransfer><feFuncA type="linear" slope="0.1"></feFuncA></feComponentTransfer><feMerge><feMergeNode></feMergeNode><feMergeNode in="SourceGraphic"></feMergeNode></feMerge></filter></defs><rect x="0" y="0" width="800" height="500" stroke="none" stroke-width="0" fill="#ffffff"></rect><g><rect x="481" y="96" width="166" height="175" stroke="none" stroke-width="0" fill-opacity="0" fill="#ffffff"></rect><g column-id="eBay Mag"><rect x="481" y="96" width="166" height="14" stroke="none" stroke-width="0" fill-opacity="0" fill="#ffffff"></rect><g><text text-anchor="start" x="500" y="107.9" font-family="Arial" font-size="14" stroke="none" stroke-width="0" fill="#222222">eBay Mag</text></g><circle cx="488" cy="103" r="7" stroke="none" stroke-width="0" fill="#3366cc"></circle></g><g column-id="Fountain"><rect x="481" y="119" width="166" height="14" stroke="none" stroke-width="0" fill-opacity="0" fill="#ffffff"></rect><g><text text-anchor="start" x="500" y="130.9" font-family="Arial" font-size="14" stroke="none" stroke-width="0" fill="#222222">Fountain</text></g><circle cx="488" cy="126" r="7" stroke="none" stroke-width="0" fill="#dc3912"></circle></g><g column-id="Mobius"><rect x="481" y="142" width="166" height="14" stroke="none" stroke-width="0" fill-opacity="0" fill="#ffffff"></rect><g><text text-anchor="start" x="500" y="153.9" font-family="Arial" font-size="14" stroke="none" stroke-width="0" fill="#222222">Mobius</text></g><circle cx="488" cy="149" r="7" stroke="none" stroke-width="0" fill="#ff9900"></circle></g><g column-id="eBay Social"><rect x="481" y="165" width="166" height="14" stroke="none" stroke-width="0" fill-opacity="0" fill="#ffffff"></rect><g><text text-anchor="start" x="500" y="176.9" font-family="Arial" font-size="14" stroke="none" stroke-width="0" fill="#222222">eBay Social</text></g><circle cx="488" cy="172" r="7" stroke="none" stroke-width="0" fill="#109618"></circle></g><g column-id="StyleCounsel"><rect x="481" y="188" width="166" height="14" stroke="none" stroke-width="0" fill-opacity="0" fill="#ffffff"></rect><g><text text-anchor="start" x="500" y="199.9" font-family="Arial" font-size="14" stroke="none" stroke-width="0" fill="#222222">StyleCounsel</text></g><circle cx="488" cy="195" r="7" stroke="none" stroke-width="0" fill="#990099"></circle></g><g column-id="Amplifr"><rect x="481" y="211" width="166" height="14" stroke="none" stroke-width="0" fill-opacity="0" fill="#ffffff"></rect><g><text text-anchor="start" x="500" y="222.9" font-family="Arial" font-size="14" stroke="none" stroke-width="0" fill="#222222">Amplifr</text></g><circle cx="488" cy="218" r="7" stroke="none" stroke-width="0" fill="#0099c6"></circle></g><g column-id="Osome"><rect x="481" y="234" width="166" height="14" stroke="none" stroke-width="0" fill-opacity="0" fill="#ffffff"></rect><g><text text-anchor="start" x="500" y="245.9" font-family="Arial" font-size="14" stroke="none" stroke-width="0" fill="#222222">Osome</text></g><circle cx="488" cy="241" r="7" stroke="none" stroke-width="0" fill="#dd4477"></circle></g><g column-id="Common"><rect x="481" y="257" width="166" height="14" stroke="none" stroke-width="0" fill-opacity="0" fill="#ffffff"></rect><g><text text-anchor="start" x="500" y="268.9" font-family="Arial" font-size="14" stroke="none" stroke-width="0" fill="#222222">Common</text></g><circle cx="488" cy="264" r="7" stroke="none" stroke-width="0" fill="#66aa00"></circle></g></g><g><path d="M306,190.2L306,99A152,152,0,0,1,455.2531619839314,222.23381085721766L365.7012647935726,239.49352434288707A60.800000000000004,60.800000000000004,0,0,0,306,190.2" stroke="#ffffff" stroke-width="1" fill="#3366cc"></path><text text-anchor="start" x="370.6585119824556" y="160.63368024028077" font-family="Arial" font-size="14" stroke="none" stroke-width="0" fill="#ffffff">22%</text></g><g><path d="M365.7012647935726,239.49352434288707L455.2531619839314,222.23381085721766A152,152,0,0,1,382,382.63586137523464L336.40000000000003,303.65434455009387A60.800000000000004,60.800000000000004,0,0,0,365.7012647935726,239.49352434288707" stroke="#ffffff" stroke-width="1" fill="#dc3912"></path><text text-anchor="start" x="392.32306873421453" y="304.45611852506363" font-family="Arial" font-size="14" stroke="none" stroke-width="0" fill="#ffffff">19.7%</text></g><g><path d="M283.4029226958521,194.55522967262277L249.50730673963028,109.88807418155693A152,152,0,0,1,306,99L306,190.2A60.800000000000004,60.800000000000004,0,0,0,283.4029226958521,194.55522967262277" stroke="#ffffff" stroke-width="1" fill="#66aa00"></path><text text-anchor="start" x="265.89950199847215" y="130.8547423796316" font-family="Arial" font-size="14" stroke="none" stroke-width="0" fill="#ffffff">6.1%</text></g><g><path d="M261.9969704832117,209.0431961018876L195.99242620802931,146.107990254719A152,152,0,0,1,249.50730673963028,109.88807418155693L283.4029226958521,194.55522967262277A60.800000000000004,60.800000000000004,0,0,0,261.9969704832117,209.0431961018876" stroke="#ffffff" stroke-width="1" fill="#dd4477"></path><text text-anchor="start" x="221.10280235567353" y="154.10447696646625" font-family="Arial" font-size="14" stroke="none" stroke-width="0" fill="#ffffff">6.8%</text></g><g><path d="M246.2987352064274,239.4935243428871L156.74683801606855,222.23381085721778A152,152,0,0,1,195.99242620802931,146.107990254719L261.9969704832117,209.0431961018876A60.800000000000004,60.800000000000004,0,0,0,246.2987352064274,239.4935243428871" stroke="#ffffff" stroke-width="1" fill="#0099c6"></path><text text-anchor="start" x="182.8361455360644" y="200.65319322578475" font-family="Arial" font-size="14" stroke="none" stroke-width="0" fill="#ffffff">9.1%</text></g><g><path d="M250.6943746824453,276.2572327905147L167.73593670611322,314.1430819762868A152,152,0,0,1,156.74683801606855,222.23381085721778L246.2987352064274,239.4935243428871A60.800000000000004,60.800000000000004,0,0,0,250.6943746824453,276.2572327905147" stroke="#ffffff" stroke-width="1" fill="#990099"></path><text text-anchor="start" x="169.66741437483714" y="270.2875219873092" font-family="Arial" font-size="14" stroke="none" stroke-width="0" fill="#ffffff">9.8%</text></g><g><path d="M275.6,303.65434455009387L230.00000000000003,382.6358613752347A152,152,0,0,1,167.7359367061132,314.14308197628674L250.69437468244527,276.2572327905147A60.800000000000004,60.800000000000004,0,0,0,275.6,303.65434455009387" stroke="#ffffff" stroke-width="1" fill="#109618"></path><text text-anchor="start" x="200.21490915781476" y="337.52005729805535" font-family="Arial" font-size="14" stroke="none" stroke-width="0" fill="#ffffff">9.8%</text></g><g><path d="M336.40000000000003,303.65434455009387L382,382.63586137523464A152,152,0,0,1,230.00000000000003,382.6358613752347L275.6,303.65434455009387A60.800000000000004,60.800000000000004,0,0,0,336.40000000000003,303.65434455009387" stroke="#ffffff" stroke-width="1" fill="#ff9900"></path><text text-anchor="start" x="286" y="385.44303350958626" font-family="Arial" font-size="14" stroke="none" stroke-width="0" fill="#ffffff">16.7%</text></g><g></g></svg>
