<svg width="800" height="500" xmlns="http://www.w3.org/2000/svg" viewBox="0 0 800 500"><defs id="defs"></defs><rect x="0" y="0" width="800" height="500" stroke="none" stroke-width="0" fill="#ffffff"></rect><g><rect x="481" y="96" width="166" height="198" stroke="none" stroke-width="0" fill-opacity="0" fill="#ffffff"></rect><g column-id="Backend"><rect x="481" y="96" width="166" height="14" stroke="none" stroke-width="0" fill-opacity="0" fill="#ffffff"></rect><g><text text-anchor="start" x="500" y="107.9" font-family="Arial" font-size="14" stroke="none" stroke-width="0" fill="#222222">Backend</text></g><circle cx="488" cy="103" r="7" stroke="none" stroke-width="0" fill="#3366cc"></circle></g><g column-id="Frontend"><rect x="481" y="119" width="166" height="14" stroke="none" stroke-width="0" fill-opacity="0" fill="#ffffff"></rect><g><text text-anchor="start" x="500" y="130.9" font-family="Arial" font-size="14" stroke="none" stroke-width="0" fill="#222222">Frontend</text></g><circle cx="488" cy="126" r="7" stroke="none" stroke-width="0" fill="#dc3912"></circle></g><g column-id="Designer"><rect x="481" y="142" width="166" height="14" stroke="none" stroke-width="0" fill-opacity="0" fill="#ffffff"></rect><g><text text-anchor="start" x="500" y="153.9" font-family="Arial" font-size="14" stroke="none" stroke-width="0" fill="#222222">Designer</text></g><circle cx="488" cy="149" r="7" stroke="none" stroke-width="0" fill="#ff9900"></circle></g><g column-id="DevOps"><rect x="481" y="165" width="166" height="14" stroke="none" stroke-width="0" fill-opacity="0" fill="#ffffff"></rect><g><text text-anchor="start" x="500" y="176.9" font-family="Arial" font-size="14" stroke="none" stroke-width="0" fill="#222222">DevOps</text></g><circle cx="488" cy="172" r="7" stroke="none" stroke-width="0" fill="#109618"></circle></g><g column-id="Manager"><rect x="481" y="188" width="166" height="14" stroke="none" stroke-width="0" fill-opacity="0" fill="#ffffff"></rect><g><text text-anchor="start" x="500" y="199.9" font-family="Arial" font-size="14" stroke="none" stroke-width="0" fill="#222222">Manager</text></g><circle cx="488" cy="195" r="7" stroke="none" stroke-width="0" fill="#990099"></circle></g><g column-id="Owner"><rect x="481" y="211" width="166" height="14" stroke="none" stroke-width="0" fill-opacity="0" fill="#ffffff"></rect><g><text text-anchor="start" x="500" y="222.9" font-family="Arial" font-size="14" stroke="none" stroke-width="0" fill="#222222">Owner</text></g><circle cx="488" cy="218" r="7" stroke="none" stroke-width="0" fill="#0099c6"></circle></g><g column-id="DS"><rect x="481" y="234" width="166" height="14" stroke="none" stroke-width="0" fill-opacity="0" fill="#ffffff"></rect><g><text text-anchor="start" x="500" y="245.9" font-family="Arial" font-size="14" stroke="none" stroke-width="0" fill="#222222">DS</text></g><circle cx="488" cy="241" r="7" stroke="none" stroke-width="0" fill="#dd4477"></circle></g><g column-id="iOS"><rect x="481" y="257" width="166" height="14" stroke="none" stroke-width="0" fill-opacity="0" fill="#ffffff"></rect><g><text text-anchor="start" x="500" y="268.9" font-family="Arial" font-size="14" stroke="none" stroke-width="0" fill="#222222">iOS</text></g><circle cx="488" cy="264" r="7" stroke="none" stroke-width="0" fill="#66aa00"></circle></g><g column-id="Accountant"><rect x="481" y="280" width="166" height="14" stroke="none" stroke-width="0" fill-opacity="0" fill="#ffffff"></rect><g><text text-anchor="start" x="500" y="291.9" font-family="Arial" font-size="14" stroke="none" stroke-width="0" fill="#222222">Accountant</text></g><circle cx="488" cy="287" r="7" stroke="none" stroke-width="0" fill="#b82e2e"></circle></g></g><g><path d="M306,190.2L306,99A152,152,0,0,1,424.8383853351405,345.77044988252754L353.5353541340562,288.90817995301103A60.800000000000004,60.800000000000004,0,0,0,306,190.2" stroke="#ffffff" stroke-width="1" fill="#3366cc"></path><text text-anchor="start" x="391.34404469769584" y="205.16898183106386" font-family="Arial" font-size="14" stroke="none" stroke-width="0" fill="#ffffff">35.7%</text></g><g><path d="M296.9382302164886,190.87908576551217L283.3455755412215,100.69771441378046A152,152,0,0,1,306,99L306,190.2A60.800000000000004,60.800000000000004,0,0,0,296.9382302164886,190.87908576551217" stroke="#ffffff" stroke-width="1" fill="#b82e2e"></path></g><g><path d="M288.078885395817,192.90117340820265L261.1972134895425,105.75293352050664A152,152,0,0,1,283.3455755412215,100.69771441378046L296.9382302164886,190.87908576551217A60.800000000000004,60.800000000000004,0,0,0,288.078885395817,192.90117340820265" stroke="#ffffff" stroke-width="1" fill="#66aa00"></path></g><g><path d="M279.61986866165245,196.22109283153293L240.04967165413115,114.05273207883232A152,152,0,0,1,261.1972134895426,105.75293352050659L288.07888539581705,192.90117340820262A60.800000000000004,60.800000000000004,0,0,0,279.61986866165245,196.22109283153293" stroke="#ffffff" stroke-width="1" fill="#dd4477"></path></g><g><path d="M264.6454975435281,206.43044619274656L202.61374385882021,139.57611548186645A152,152,0,0,1,240.04967165413115,114.05273207883232L279.61986866165245,196.22109283153293A60.800000000000004,60.800000000000004,0,0,0,264.6454975435281,206.43044619274656" stroke="#ffffff" stroke-width="1" fill="#0099c6"></path></g><g><path d="M249.40287608243239,228.78726571852314L164.50719020608096,195.4681642963079A152,152,0,0,1,202.61374385882021,139.57611548186645L264.6454975435281,206.43044619274656A60.800000000000004,60.800000000000004,0,0,0,249.40287608243239,228.78726571852314" stroke="#ffffff" stroke-width="1" fill="#990099"></path><text text-anchor="start" x="190.1910612154301" y="187.8514177509546" font-family="Arial" font-size="14" stroke="none" stroke-width="0" fill="#ffffff">7.1%</text></g><g><path d="M245.37000913138425,255.54358969005463L154.4250228284606,262.35897422513654A152,152,0,0,1,164.50719020608096,195.4681642963079L249.40287608243239,228.78726571852314A60.800000000000004,60.800000000000004,0,0,0,245.37000913138425,255.54358969005463" stroke="#ffffff" stroke-width="1" fill="#109618"></path><text text-anchor="start" x="170.29134405356325" y="237.85682326038355" font-family="Arial" font-size="14" stroke="none" stroke-width="0" fill="#ffffff">7.1%</text></g><g><path d="M253.34565544990613,281.4L174.3641386247653,327A152,152,0,0,1,154.4250228284606,262.3589742251366L245.37000913138425,255.54358969005466A60.800000000000004,60.800000000000004,0,0,0,253.34565544990613,281.4" stroke="#ffffff" stroke-width="1" fill="#ff9900"></path><text text-anchor="start" x="174.72596037401127" y="291.45733215644907" font-family="Arial" font-size="14" stroke="none" stroke-width="0" fill="#ffffff">7.1%</text></g><g><path d="M353.5353541340562,288.90817995301103L424.8383853351405,345.77044988252754A152,152,0,0,1,174.36413862476527,326.99999999999994L253.3456554499061,281.4A60.800000000000004,60.800000000000004,0,0,0,353.5353541340562,288.90817995301103" stroke="#ffffff" stroke-width="1" fill="#dc3912"></path><text text-anchor="start" x="282.3360878262677" y="384.8559460289762" font-family="Arial" font-size="14" stroke="none" stroke-width="0" fill="#ffffff">31%</text></g><g></g></svg>
