<svg width="800" height="500" xmlns="http://www.w3.org/2000/svg" viewBox="0 0 800 500"><defs id="defs"></defs><rect x="0" y="0" width="800" height="500" stroke="none" stroke-width="0" fill="#ffffff"></rect><g><rect x="481" y="96" width="166" height="198" stroke="none" stroke-width="0" fill-opacity="0" fill="#ffffff"></rect><g column-id="Back-end"><rect x="481" y="96" width="166" height="14" stroke="none" stroke-width="0" fill-opacity="0" fill="#ffffff"></rect><g><text text-anchor="start" x="500" y="107.9" font-family="Arial" font-size="14" stroke="none" stroke-width="0" fill="#222222">Back-end</text></g><circle cx="488" cy="103" r="7" stroke="none" stroke-width="0" fill="#3366cc"></circle></g><g column-id="Front-end"><rect x="481" y="119" width="166" height="14" stroke="none" stroke-width="0" fill-opacity="0" fill="#ffffff"></rect><g><text text-anchor="start" x="500" y="130.9" font-family="Arial" font-size="14" stroke="none" stroke-width="0" fill="#222222">Front-end</text></g><circle cx="488" cy="126" r="7" stroke="none" stroke-width="0" fill="#dc3912"></circle></g><g column-id="Design"><rect x="481" y="142" width="166" height="14" stroke="none" stroke-width="0" fill-opacity="0" fill="#ffffff"></rect><g><text text-anchor="start" x="500" y="153.9" font-family="Arial" font-size="14" stroke="none" stroke-width="0" fill="#222222">Design</text></g><circle cx="488" cy="149" r="7" stroke="none" stroke-width="0" fill="#ff9900"></circle></g><g column-id="Ops"><rect x="481" y="165" width="166" height="14" stroke="none" stroke-width="0" fill-opacity="0" fill="#ffffff"></rect><g><text text-anchor="start" x="500" y="176.9" font-family="Arial" font-size="14" stroke="none" stroke-width="0" fill="#222222">Ops</text></g><circle cx="488" cy="172" r="7" stroke="none" stroke-width="0" fill="#109618"></circle></g><g column-id="iOS"><rect x="481" y="188" width="166" height="14" stroke="none" stroke-width="0" fill-opacity="0" fill="#ffffff"></rect><g><text text-anchor="start" x="500" y="199.9" font-family="Arial" font-size="14" stroke="none" stroke-width="0" fill="#222222">iOS</text></g><circle cx="488" cy="195" r="7" stroke="none" stroke-width="0" fill="#990099"></circle></g><g column-id="Tools"><rect x="481" y="211" width="166" height="14" stroke="none" stroke-width="0" fill-opacity="0" fill="#ffffff"></rect><g><text text-anchor="start" x="500" y="222.9" font-family="Arial" font-size="14" stroke="none" stroke-width="0" fill="#222222">Tools</text></g><circle cx="488" cy="218" r="7" stroke="none" stroke-width="0" fill="#0099c6"></circle></g><g column-id="Events"><rect x="481" y="234" width="166" height="14" stroke="none" stroke-width="0" fill-opacity="0" fill="#ffffff"></rect><g><text text-anchor="start" x="500" y="245.9" font-family="Arial" font-size="14" stroke="none" stroke-width="0" fill="#222222">Events</text></g><circle cx="488" cy="241" r="7" stroke="none" stroke-width="0" fill="#dd4477"></circle></g><g column-id="Lifestyle"><rect x="481" y="257" width="166" height="14" stroke="none" stroke-width="0" fill-opacity="0" fill="#ffffff"></rect><g><text text-anchor="start" x="500" y="268.9" font-family="Arial" font-size="14" stroke="none" stroke-width="0" fill="#222222">Lifestyle</text></g><circle cx="488" cy="264" r="7" stroke="none" stroke-width="0" fill="#66aa00"></circle></g><g column-id="Case study"><rect x="481" y="280" width="166" height="14" stroke="none" stroke-width="0" fill-opacity="0" fill="#ffffff"></rect><g><text text-anchor="start" x="500" y="291.9" font-family="Arial" font-size="14" stroke="none" stroke-width="0" fill="#222222">Case study</text></g><circle cx="488" cy="287" r="7" stroke="none" stroke-width="0" fill="#b82e2e"></circle></g></g><g><path d="M306,251L306,99A152,152,0,0,1,328.6544244587785,401.30228558621957L306,251A0,0,0,0,0,306,251" stroke="#ffffff" stroke-width="1" fill="#3366cc"></path><text text-anchor="start" x="403.0953924972421" y="247.12491343836294" font-family="Arial" font-size="14" stroke="none" stroke-width="0" fill="#ffffff">47.6%</text></g><g><path d="M306,251L283.3455755412215,100.69771441378046A152,152,0,0,1,306,99L306,251A0,0,0,0,0,306,251" stroke="#ffffff" stroke-width="1" fill="#b82e2e"></path></g><g><path d="M306,251L261.1972134895425,105.75293352050664A152,152,0,0,1,283.3455755412215,100.69771441378046L306,251A0,0,0,0,0,306,251" stroke="#ffffff" stroke-width="1" fill="#66aa00"></path></g><g><path d="M306,251L240.04967165413115,114.05273207883232A152,152,0,0,1,261.1972134895426,105.75293352050659L306,251A0,0,0,0,0,306,251" stroke="#ffffff" stroke-width="1" fill="#dd4477"></path></g><g><path d="M306,251L220.37535117432947,125.41170630396877A152,152,0,0,1,240.04967165413115,114.05273207883232L306,251A0,0,0,0,0,306,251" stroke="#ffffff" stroke-width="1" fill="#0099c6"></path></g><g><path d="M306,251L202.61374385882021,139.57611548186645A152,152,0,0,1,220.37535117432947,125.41170630396877L306,251A0,0,0,0,0,306,251" stroke="#ffffff" stroke-width="1" fill="#990099"></path></g><g><path d="M306,251L187.16161466485946,156.2295501174725A152,152,0,0,1,202.61374385882021,139.57611548186645L306,251A0,0,0,0,0,306,251" stroke="#ffffff" stroke-width="1" fill="#109618"></path></g><g><path d="M306,251L157.8109573483628,217.1768180386403A152,152,0,0,1,187.16161466485946,156.2295501174725L306,251A0,0,0,0,0,306,251" stroke="#ffffff" stroke-width="1" fill="#ff9900"></path><text text-anchor="start" x="181.39194260313195" y="203.5971161596771" font-family="Arial" font-size="14" stroke="none" stroke-width="0" fill="#ffffff">7.1%</text></g><g><path d="M306,251L328.6544244587785,401.30228558621957A152,152,0,0,1,157.8109573483628,217.1768180386403L306,251A0,0,0,0,0,306,251" stroke="#ffffff" stroke-width="1" fill="#dc3912"></path><text text-anchor="start" x="201.90338962131443" y="339.49743764405326" font-family="Arial" font-size="14" stroke="none" stroke-width="0" fill="#ffffff">31%</text></g><g></g></svg>
